<svg width="41" height="41" viewBox="0 0 41 41" fill="none" xmlns="http://www.w3.org/2000/svg">
<path d="M30.8065 20.0682C30.6041 20.0682 30.4144 20.0302 30.2373 19.9543C30.0602 19.8784 29.921 19.7519 29.8198 19.5748C29.7186 19.3977 29.668 19.208 29.668 19.0056V16.2731C29.668 15.9695 29.7819 15.7038 30.0096 15.4761C30.2373 15.2484 30.5029 15.1346 30.8065 15.1346H33.539C33.8426 15.1346 34.0956 15.2484 34.298 15.4761C34.5004 15.7038 34.6016 15.9695 34.6016 16.2731V19.0056C34.6016 19.3092 34.5004 19.5622 34.298 19.7646C34.0956 19.967 33.8426 20.0682 33.539 20.0682H30.8065ZM30.8065 16.2731V18.9297H33.4631V16.2731H30.8065ZM30.8065 27.2788C30.6041 27.2788 30.4144 27.2408 30.2373 27.1649C30.0602 27.089 29.921 26.9625 29.8198 26.7854C29.7186 26.6083 29.668 26.4186 29.668 26.2162V23.4837C29.668 23.1801 29.7819 22.9145 30.0096 22.6868C30.2373 22.4591 30.5029 22.3452 30.8065 22.3452H33.539C33.8426 22.3452 34.0956 22.4591 34.298 22.6868C34.5004 22.9145 34.6016 23.1801 34.6016 23.4837V26.2162C34.6016 26.5198 34.5004 26.7728 34.298 26.9752C34.0956 27.1776 33.8426 27.2788 33.539 27.2788H30.8065ZM30.8065 23.4837V26.1403H33.4631V23.4837H30.8065ZM23.0646 20.0682C22.8622 20.0682 22.6724 20.0302 22.4953 19.9543C22.3182 19.8784 22.1791 19.7519 22.0779 19.5748C21.9767 19.3977 21.9261 19.208 21.9261 19.0056V16.2731C21.9261 15.9695 22.0399 15.7038 22.2676 15.4761C22.4953 15.2484 22.761 15.1346 23.0646 15.1346H25.797C26.1006 15.1346 26.3536 15.2484 26.556 15.4761C26.7585 15.7038 26.8597 15.9695 26.8597 16.2731V19.0056C26.8597 19.3092 26.7585 19.5622 26.556 19.7646C26.3536 19.967 26.1006 20.0682 25.797 20.0682H23.0646ZM23.0646 16.2731V18.9297H25.7211V16.2731H23.0646ZM10.3132 29.2522C10.6168 29.2522 10.8824 29.3661 11.1101 29.5938C11.3378 29.8215 11.4517 30.0871 11.4517 30.3908V33.0473C11.4517 33.3509 11.3378 33.6166 11.1101 33.8443C10.8824 34.072 10.6168 34.1858 10.3132 34.1858H7.58072C7.27711 34.1858 7.02411 34.072 6.8217 33.8443C6.6193 33.6166 6.5181 33.3509 6.5181 33.0473V30.3908C6.5181 30.0871 6.6193 29.8215 6.8217 29.5938C7.02411 29.3661 7.27711 29.2522 7.58072 29.2522H10.3132ZM10.3132 33.0473V30.3908H7.65662V33.0473H10.3132ZM10.3132 15.1346C10.6168 15.1346 10.8824 15.2484 11.1101 15.4761C11.3378 15.7038 11.4517 15.9695 11.4517 16.2731V19.0056C11.4517 19.3092 11.3378 19.5622 11.1101 19.7646C10.8824 19.967 10.6168 20.0682 10.3132 20.0682H7.58072C7.27711 20.0682 7.02411 19.967 6.8217 19.7646C6.6193 19.5622 6.5181 19.3092 6.5181 19.0056V16.2731C6.5181 15.9695 6.6193 15.7038 6.8217 15.4761C7.02411 15.2484 7.27711 15.1346 7.58072 15.1346H10.3132ZM10.3132 18.9297V16.2731H7.65662V18.9297H10.3132ZM23.0646 27.127C22.761 27.127 22.4953 27.0258 22.2676 26.8234C22.0399 26.621 21.9261 26.368 21.9261 26.0644V23.3319C21.9261 23.1295 21.9767 22.9398 22.0779 22.7627C22.1791 22.5856 22.3182 22.4464 22.4953 22.3452C22.6724 22.244 22.8622 22.1934 23.0646 22.1934H25.797C25.9994 22.1934 26.1892 22.244 26.3663 22.3452C26.5434 22.4464 26.6699 22.5856 26.7458 22.7627C26.8217 22.9398 26.8597 23.1295 26.8597 23.3319V26.0644C26.8597 26.368 26.7585 26.621 26.556 26.8234C26.3536 27.0258 26.1006 27.127 25.797 27.127H23.0646ZM23.0646 23.3319V25.9885H25.7211V23.3319H23.0646ZM35.2088 3.59758C35.9678 3.59758 36.6256 3.87589 37.1822 4.4325C37.7388 4.98911 38.0172 5.67222 38.0172 6.48183V36.9942C38.0172 37.8038 37.7388 38.4869 37.1822 39.0435C36.6256 39.6001 35.9678 39.8784 35.2088 39.8784H5.91089C5.15188 39.8784 4.49406 39.6001 3.93745 39.0435C3.38084 38.4869 3.10254 37.8038 3.10254 36.9942V6.48183C3.10254 5.67222 3.38084 4.98911 3.93745 4.4325C4.49406 3.87589 5.15188 3.59758 5.91089 3.59758H8.33973V2.76267C8.33973 2.25666 8.51683 1.8392 8.87104 1.5103C9.22525 1.18139 9.63005 1.01694 10.0855 1.01694H10.3132C10.8192 1.01694 11.2366 1.18139 11.5655 1.5103C11.8944 1.8392 12.0589 2.25666 12.0589 2.76267V3.59758H29.0608V2.76267C29.0608 2.25666 29.2252 1.8392 29.5542 1.5103C29.8831 1.18139 30.3005 1.01694 30.8065 1.01694H31.0342C31.4896 1.01694 31.8944 1.18139 32.2486 1.5103C32.6029 1.8392 32.78 2.25666 32.78 2.76267V3.59758H35.2088ZM30.1993 2.76267V3.59758H31.6414V2.76267C31.6414 2.35786 31.439 2.15546 31.0342 2.15546H30.8065C30.4017 2.15546 30.1993 2.35786 30.1993 2.76267ZM9.47825 2.76267V3.59758H10.9204V2.76267C10.9204 2.35786 10.718 2.15546 10.3132 2.15546H10.0855C9.68065 2.15546 9.47825 2.35786 9.47825 2.76267ZM36.8786 36.9942V30.8462L31.0342 36.7665C30.4776 37.3231 29.7945 37.6014 28.9849 37.6014H5.91089C5.30368 37.6014 4.74707 37.399 4.24106 36.9942C4.24106 37.5002 4.40551 37.9176 4.73442 38.2465C5.06332 38.5754 5.45548 38.7399 5.91089 38.7399H35.2088C35.6642 38.7399 36.0564 38.5754 36.3853 38.2465C36.7142 37.9176 36.8786 37.5002 36.8786 36.9942ZM30.427 35.7038L36.1955 30.0112C35.9931 30.0618 35.7907 30.0871 35.5883 30.0871H31.7932C31.439 30.0871 31.1354 30.2136 30.8824 30.4667C30.6294 30.7197 30.5029 31.0233 30.5029 31.3775V35.1725C30.5029 35.3749 30.4776 35.552 30.427 35.7038ZM36.8786 11.719V6.48183C36.8786 5.97582 36.7142 5.55837 36.3853 5.22946C36.0564 4.90055 35.6642 4.7361 35.2088 4.7361H30.1993V6.40593C30.1993 6.81074 30.4017 7.01314 30.8065 7.01314C31.1607 7.01314 31.3378 7.2029 31.3378 7.5824C31.3378 7.96191 31.1607 8.15166 30.8065 8.15166C30.3005 8.15166 29.8831 7.98721 29.5542 7.6583C29.2252 7.3294 29.0608 6.91194 29.0608 6.40593V4.7361H9.47825V6.40593C9.47825 6.81074 9.68065 7.01314 10.0855 7.01314C10.4903 7.01314 10.6927 7.2029 10.6927 7.5824C10.6927 7.96191 10.4903 8.15166 10.0855 8.15166C9.63005 8.15166 9.22525 7.98721 8.87104 7.6583C8.51683 7.3294 8.33973 6.91194 8.33973 6.40593V4.7361H5.91089C5.60728 4.7361 5.32898 4.812 5.07597 4.96381C4.82297 5.11561 4.62057 5.33066 4.46876 5.60897C4.31696 5.88727 4.24106 6.17823 4.24106 6.48183V11.719H10.3891C10.7433 11.719 10.9204 11.9088 10.9204 12.2883C10.9204 12.6678 10.7433 12.8575 10.3891 12.8575H4.24106V34.7171C4.24106 35.2231 4.40551 35.6406 4.73442 35.9695C5.06332 36.2984 5.45548 36.4629 5.91089 36.4629H28.0741C28.4283 36.4629 28.7319 36.3364 28.9849 36.0834C29.2379 35.8303 29.3644 35.5267 29.3644 35.1725V31.3775C29.3644 30.7197 29.6048 30.1504 30.0855 29.6697C30.5662 29.189 31.1354 28.9486 31.7932 28.9486H35.5883C35.9425 28.9486 36.2461 28.8221 36.4991 28.5691C36.7521 28.3161 36.8786 28.0125 36.8786 27.6583V12.8575H12.6661C12.2613 12.8575 12.0589 12.6678 12.0589 12.2883C12.0589 11.9088 12.2613 11.719 12.6661 11.719H36.8786ZM10.3132 22.1934C10.6168 22.1934 10.8824 22.3073 11.1101 22.535C11.3378 22.7627 11.4517 23.0283 11.4517 23.3319V26.0644C11.4517 26.368 11.3378 26.621 11.1101 26.8234C10.8824 27.0258 10.6168 27.127 10.3132 27.127H7.58072C7.27711 27.127 7.02411 27.0258 6.8217 26.8234C6.6193 26.621 6.5181 26.368 6.5181 26.0644V23.3319C6.5181 23.1295 6.5687 22.9398 6.6699 22.7627C6.7711 22.5856 6.89761 22.4464 7.04941 22.3452C7.20121 22.244 7.37831 22.1934 7.58072 22.1934H10.3132ZM10.3132 25.9885V23.3319H7.65662V25.9885H10.3132ZM15.3227 20.0682C15.019 20.0682 14.766 19.967 14.5636 19.7646C14.3612 19.5622 14.26 19.3092 14.26 19.0056V16.2731C14.26 15.9695 14.3612 15.7038 14.5636 15.4761C14.766 15.2484 15.019 15.1346 15.3227 15.1346H18.0551C18.3587 15.1346 18.6244 15.2484 18.8521 15.4761C19.0798 15.7038 19.1936 15.9695 19.1936 16.2731V19.0056C19.1936 19.3092 19.0798 19.5622 18.8521 19.7646C18.6244 19.967 18.3587 20.0682 18.0551 20.0682H15.3227ZM15.3986 16.2731V18.9297H18.0551V16.2731H15.3986ZM23.0646 33.0473H25.7211V30.3908H23.0646V31.1498C23.0646 31.504 22.8748 31.6811 22.4953 31.6811C22.1158 31.6811 21.9261 31.504 21.9261 31.1498V30.3908C21.9261 30.0871 22.0399 29.8215 22.2676 29.5938C22.4953 29.3661 22.761 29.2522 23.0646 29.2522H25.797C26.1006 29.2522 26.3536 29.3661 26.556 29.5938C26.7585 29.8215 26.8597 30.0871 26.8597 30.3908V33.0473C26.8597 33.3509 26.7585 33.6166 26.556 33.8443C26.3536 34.072 26.1006 34.1858 25.797 34.1858H23.0646C22.761 34.1858 22.4953 34.072 22.2676 33.8443C22.0399 33.6166 21.9261 33.3509 21.9261 33.0473C21.9261 32.6931 22.1285 32.516 22.5333 32.516C22.8875 32.516 23.0646 32.6931 23.0646 33.0473ZM15.3227 27.127C15.019 27.127 14.766 27.0258 14.5636 26.8234C14.3612 26.621 14.26 26.368 14.26 26.0644V23.3319C14.26 23.1295 14.298 22.9398 14.3739 22.7627C14.4498 22.5856 14.5763 22.4464 14.7534 22.3452C14.9305 22.244 15.1202 22.1934 15.3227 22.1934H18.0551C18.3587 22.1934 18.6244 22.3073 18.8521 22.535C19.0798 22.7627 19.1936 23.0283 19.1936 23.3319V26.0644C19.1936 26.368 19.0798 26.621 18.8521 26.8234C18.6244 27.0258 18.3587 27.127 18.0551 27.127H15.3227ZM15.3986 23.3319V25.9885H18.0551V23.3319H15.3986ZM15.3227 34.1858C15.019 34.1858 14.766 34.072 14.5636 33.8443C14.3612 33.6166 14.26 33.3509 14.26 33.0473V30.3908C14.26 30.0871 14.3612 29.8215 14.5636 29.5938C14.766 29.3661 15.019 29.2522 15.3227 29.2522H18.0551C18.3587 29.2522 18.6244 29.3661 18.8521 29.5938C19.0798 29.8215 19.1936 30.0871 19.1936 30.3908V33.0473C19.1936 33.3509 19.0798 33.6166 18.8521 33.8443C18.6244 34.072 18.3587 34.1858 18.0551 34.1858H15.3227ZM15.3986 30.3908V33.0473H18.0551V30.3908H15.3986Z" fill="#00BCD4"/>
</svg>
