<svg width="41" height="41" viewBox="0 0 41 41" fill="none" xmlns="http://www.w3.org/2000/svg">
<path d="M22.2979 23.3699C22.2979 23.3699 22.1777 23.4901 21.9374 23.7304C21.697 23.9708 21.2479 24.091 20.5901 24.091C19.9323 24.091 19.3631 23.8506 18.8824 23.3699C18.4016 22.8892 18.1613 22.3199 18.1613 21.6621V20.4477H23.019V21.6621C23.019 22.3199 22.7786 22.8892 22.2979 23.3699ZM21.8046 21.6621H19.3757C19.3757 22.0163 19.4896 22.3073 19.7173 22.535C19.945 22.7627 20.2359 22.8766 20.5901 22.8766C20.9443 22.8766 21.2353 22.7627 21.463 22.535C21.6907 22.3073 21.8046 22.0163 21.8046 21.6621ZM14.518 9.06251L11.2543 6.33006C10.5965 5.82405 10.2676 5.14094 10.2676 4.28073C10.2676 3.57232 10.5332 2.95245 11.0645 2.42115C11.5958 1.88984 12.2157 1.62418 12.9241 1.62418H13.0759C13.5819 1.62418 14.0626 1.77598 14.518 2.07959C14.9734 1.77598 15.4541 1.62418 15.9601 1.62418H16.112C16.8204 1.62418 17.4402 1.88984 17.9715 2.42115C18.5028 2.95245 18.7685 3.57232 18.7685 4.28073C18.7685 5.14094 18.4396 5.82405 17.7818 6.33006L14.518 9.06251ZM12.9241 2.8386C12.5193 2.8386 12.1777 2.97775 11.8994 3.25606C11.6211 3.53436 11.482 3.87592 11.482 4.28073C11.482 4.73613 11.6591 5.11564 12.0133 5.41925L14.518 7.54449L17.0228 5.41925C17.377 5.11564 17.5541 4.73613 17.5541 4.28073C17.5541 3.87592 17.4149 3.53436 17.1366 3.25606C16.8583 2.97775 16.5168 2.8386 16.112 2.8386H15.9601C15.5553 2.8386 15.2264 2.99041 14.9734 3.29401L14.518 3.67352L14.0626 3.29401C13.8096 2.99041 13.4807 2.8386 13.0759 2.8386H12.9241ZM6.01708 15.1346L2.75332 12.4022C2.09551 11.8962 1.7666 11.213 1.7666 10.3528C1.7666 9.64442 2.03226 9.02456 2.56357 8.49325C3.09487 7.96194 3.71474 7.69629 4.42315 7.69629H4.57495C5.08096 7.69629 5.56167 7.84809 6.01708 8.1517C6.47248 7.84809 6.95319 7.69629 7.4592 7.69629H7.611C8.31942 7.69629 8.93928 7.96194 9.47059 8.49325C10.0019 9.02456 10.2676 9.64442 10.2676 10.3528C10.2676 11.213 9.93864 11.8962 9.28083 12.4022L6.01708 15.1346ZM4.42315 8.91071C4.01834 8.91071 3.67678 9.04986 3.39848 9.32817C3.12018 9.60647 2.98102 9.94803 2.98102 10.3528C2.98102 10.8082 3.15813 11.1877 3.51233 11.4914L6.01708 13.6166L8.52182 11.4914C8.87603 11.1877 9.05313 10.8082 9.05313 10.3528C9.05313 9.94803 8.91398 9.60647 8.63567 9.32817C8.35737 9.04986 8.01581 8.91071 7.611 8.91071H7.4592C7.05439 8.91071 6.72549 9.06251 6.47248 9.36612L6.01708 9.74562L5.56167 9.36612C5.30866 9.06251 4.97976 8.91071 4.57495 8.91071H4.42315ZM26.6622 9.06251L23.3985 6.33006C22.7407 5.82405 22.4118 5.14094 22.4118 4.28073C22.4118 3.57232 22.6774 2.95245 23.2087 2.42115C23.74 1.88984 24.3599 1.62418 25.0683 1.62418H25.2201C25.7261 1.62418 26.2068 1.77598 26.6622 2.07959C27.1176 1.77598 27.5984 1.62418 28.1044 1.62418H28.2562C28.9646 1.62418 29.5844 1.88984 30.1157 2.42115C30.6471 2.95245 30.9127 3.57232 30.9127 4.28073C30.9127 5.14094 30.5838 5.82405 29.926 6.33006L26.6622 9.06251ZM25.0683 2.8386C24.6635 2.8386 24.3219 2.97775 24.0436 3.25606C23.7653 3.53436 23.6262 3.87592 23.6262 4.28073C23.6262 4.73613 23.8033 5.11564 24.1575 5.41925L26.6622 7.54449L29.167 5.41925C29.5212 5.11564 29.6983 4.73613 29.6983 4.28073C29.6983 3.87592 29.5591 3.53436 29.2808 3.25606C29.0025 2.97775 28.661 2.8386 28.2562 2.8386H28.1044C27.6996 2.8386 27.3706 2.99041 27.1176 3.29401L26.6622 3.67352L26.2068 3.29401C25.9538 2.99041 25.6249 2.8386 25.2201 2.8386H25.0683ZM31.8994 12.4022C31.2416 11.8962 30.9127 11.213 30.9127 10.3528C30.9127 9.64442 31.1784 9.02456 31.7097 8.49325C32.241 7.96194 32.8608 7.69629 33.5693 7.69629H33.7211C34.2271 7.69629 34.7078 7.84809 35.1632 8.1517C35.6186 7.84809 36.0993 7.69629 36.6053 7.69629H36.7571C37.4655 7.69629 38.0854 7.96194 38.6167 8.49325C39.148 9.02456 39.4137 9.64442 39.4137 10.3528C39.4137 11.213 39.0848 11.8962 38.4269 12.4022L35.1632 15.1346L31.8994 12.4022ZM33.5693 8.91071C33.1645 8.91071 32.8229 9.04986 32.5446 9.32817C32.2663 9.60647 32.1271 9.94803 32.1271 10.3528C32.1271 10.8082 32.3042 11.1877 32.6584 11.4914L35.1632 13.6166L37.6679 11.4914C38.0221 11.1877 38.1992 10.8082 38.1992 10.3528C38.1992 9.94803 38.0601 9.60647 37.7818 9.32817C37.5035 9.04986 37.1619 8.91071 36.7571 8.91071H36.6053C36.2005 8.91071 35.8716 9.06251 35.6186 9.36612L35.1632 9.74562L34.7078 9.36612C34.4548 9.06251 34.1259 8.91071 33.7211 8.91071H33.5693ZM37.4402 18.0189C37.9968 18.0189 38.4649 18.2086 38.8444 18.5881C39.2239 18.9676 39.4137 19.4357 39.4137 19.9923C39.4137 20.4477 39.2619 20.8525 38.9583 21.2067C38.6546 21.5609 38.2751 21.7886 37.8197 21.8898L36.074 22.1934L27.8767 30.998V39.2712H13.3036V30.998L5.10626 22.1934L3.36053 21.8898C3.05692 21.7886 2.77862 21.6495 2.52561 21.4724C2.27261 21.2953 2.08286 21.0802 1.95635 20.8272C1.82985 20.5742 1.7666 20.2959 1.7666 19.9923C1.7666 19.4357 1.95635 18.9676 2.33586 18.5881C2.71537 18.2086 3.18343 18.0189 3.74004 18.0189H4.57495L5.10626 17.4876C5.56167 17.0322 6.09298 16.8044 6.70019 16.8044C7.76281 16.8044 8.44592 17.3105 8.74952 18.3225L8.97723 18.9297L17.4023 26.7475L17.8577 25.7608C16.7951 25.0524 16.0614 24.091 15.6565 22.8766H15.1252C14.4674 22.8766 13.8982 22.6362 13.4175 22.1555C12.9367 21.6748 12.6964 21.1055 12.6964 20.4477C12.6964 19.8911 12.8735 19.3851 13.2277 18.9297L12.9241 17.6394C12.7723 17.1334 12.6964 16.602 12.6964 16.0454C12.6964 14.2744 13.3416 12.7437 14.6319 11.4534C15.9222 10.1631 17.4529 9.51792 19.2239 9.51792H21.9564C23.7274 9.51792 25.2581 10.1631 26.5484 11.4534C27.8387 12.7437 28.4839 14.2744 28.4839 16.0454C28.4839 16.602 28.408 17.1334 28.2562 17.6394L27.9526 18.9297C28.3068 19.3851 28.4839 19.8911 28.4839 20.4477C28.4839 21.1055 28.2435 21.6748 27.7628 22.1555C27.2821 22.6362 26.7128 22.8766 26.055 22.8766H25.5237C25.1189 24.091 24.3852 25.0524 23.3226 25.7608L23.778 26.7475L32.203 18.9297L32.4307 18.3225C32.7343 17.3105 33.4175 16.8044 34.4801 16.8044C35.0873 16.8044 35.6186 17.0322 36.074 17.4876L36.6053 18.0189H37.4402ZM18.1613 29.0246V30.1631C18.4649 30.0113 18.7938 29.8848 19.148 29.7836L18.1613 29.0246ZM26.055 21.6621C26.4092 21.6621 26.7002 21.5483 26.9279 21.3206C27.1556 21.0929 27.2694 20.8019 27.2694 20.4477C27.2694 20.0935 27.1556 19.8025 26.9279 19.5748C26.7002 19.3471 26.4092 19.2333 26.055 19.2333H25.9032L25.7514 21.6621H26.055ZM14.2524 19.5748C14.2524 19.5748 14.1954 19.6318 14.0816 19.7456C13.9677 19.8595 13.9108 20.0935 13.9108 20.4477C13.9108 20.8019 14.0247 21.0929 14.2524 21.3206C14.4801 21.5483 14.771 21.6621 15.1252 21.6621H15.4288L15.277 19.2333H15.1252C14.771 19.2333 14.4801 19.3471 14.2524 19.5748ZM15.1252 17.184C15.1252 16.3237 15.4794 15.6406 16.1879 15.1346C16.9975 14.6286 17.8577 14.3756 18.7685 14.3756H18.8444C20.2106 14.3756 21.3238 14.9069 22.1841 15.9695L22.8672 16.8803C23.1708 17.2346 23.5503 17.4117 24.0057 17.4117C24.4105 17.4117 24.7521 17.2725 25.0304 16.9942C25.3087 16.7159 25.4478 16.3743 25.4478 15.9695V15.59H26.6622V15.9695C26.6622 16.6273 26.4598 17.2093 26.055 17.7153L25.9791 18.0189H26.055C26.3586 18.0189 26.6369 18.0695 26.8899 18.1707L27.1176 17.3358C27.2188 16.9309 27.2694 16.5008 27.2694 16.0454C27.2694 14.578 26.7508 13.3256 25.7135 12.2883C24.6762 11.251 23.4238 10.7323 21.9564 10.7323H19.2239C17.7565 10.7323 16.5041 11.251 15.4668 12.2883C14.4295 13.3256 13.9108 14.578 13.9108 16.0454C13.9108 16.5008 13.9614 16.9309 14.0626 17.3358L14.2903 18.1707C14.5433 18.0695 14.8216 18.0189 15.1252 18.0189H15.2011L15.1252 17.5635C15.1252 17.4623 15.1252 17.3864 15.1252 17.3358V17.184ZM16.6433 21.6621C16.6939 22.6741 17.1113 23.5344 17.8956 24.2428C18.6799 24.9512 19.5781 25.3054 20.5901 25.3054C21.6021 25.3054 22.5003 24.9512 23.2846 24.2428C24.0689 23.5344 24.4864 22.6741 24.537 21.6621L24.7647 18.5502C24.5117 18.6008 24.2587 18.6261 24.0057 18.6261C23.1455 18.6261 22.4624 18.2972 21.9564 17.6394L21.1973 16.7285C20.5901 15.9695 19.8058 15.59 18.8444 15.59H18.7685C18.0601 15.59 17.4276 15.7924 16.871 16.1972C16.5168 16.3996 16.3397 16.7285 16.3397 17.184V17.3358C16.3397 17.3864 16.3397 17.437 16.3397 17.4876L16.6433 21.6621ZM22.1841 26.2162C21.6781 26.4186 21.1467 26.5198 20.5901 26.5198C20.0335 26.5198 19.5022 26.4186 18.9962 26.2162L18.3131 27.5824L20.5901 29.4041L22.8672 27.5824L22.1841 26.2162ZM23.019 29.0246L22.0323 29.7836C22.3865 29.8848 22.7154 30.0113 23.019 30.1631V29.0246ZM2.98102 19.9923C2.98102 20.3465 3.18343 20.5742 3.58823 20.6754L5.25806 20.979L7.76281 19.0056L7.611 18.702C7.4592 18.2466 7.1556 18.0189 6.70019 18.0189C6.39658 18.0189 6.14358 18.1201 5.94117 18.3225L5.03036 19.2333H3.74004C3.23403 19.2333 2.98102 19.4863 2.98102 19.9923ZM26.6622 30.5426L34.8596 21.738L32.7343 20.0682L24.2334 27.9619V32.8196L23.1708 31.8329C22.513 31.1245 21.6781 30.7703 20.666 30.7703H20.5142C19.5022 30.7703 18.6673 31.1245 18.0095 31.8329L16.9469 32.8196V27.9619L8.44592 20.0682L6.32068 21.738L14.518 30.5426V38.0568H26.6622V30.5426ZM37.592 20.6754C37.9968 20.5742 38.1992 20.3465 38.1992 19.9923C38.1992 19.4863 37.9462 19.2333 37.4402 19.2333H36.1499L35.2391 18.3225C35.0367 18.1201 34.7837 18.0189 34.4801 18.0189C34.0247 18.0189 33.7211 18.2466 33.5693 18.702L33.4175 19.0056L35.9222 20.979L37.592 20.6754Z" fill="#00BCD4"/>
</svg>
