<svg width="41" height="41" viewBox="0 0 41 41" fill="none" xmlns="http://www.w3.org/2000/svg">
<path d="M9.18519 11.4913L9.9442 12.5539C8.83098 13.313 8.27437 14.3503 8.27437 15.6659V16.5767H6.98405V15.6659C6.98405 13.8949 7.71776 12.5033 9.18519 11.4913ZM25.4281 21.8139C26.0353 21.2067 26.7943 20.9031 27.7051 20.9031C28.6159 20.9031 29.3876 21.2193 30.0201 21.8519C30.6526 22.4844 30.9689 23.2307 30.9689 24.0909V39.1953C30.9689 39.6507 30.7412 39.8784 30.2858 39.8784H1.82276C1.36735 39.8784 1.13965 39.6507 1.13965 39.1953V24.0909C1.13965 23.6355 1.21555 23.2054 1.36735 22.8006C1.77216 21.991 2.37937 21.4217 3.18898 21.0928C3.9986 20.7639 4.83351 20.7766 5.69373 21.1308C4.83351 19.1068 4.40341 17.0068 4.40341 14.831C4.40341 14.0214 4.55521 13.2371 4.85881 12.478C5.51662 10.9094 6.61719 9.82149 8.16052 9.21428C9.70385 8.60707 11.2345 8.63237 12.7526 9.29018C14.726 10.1504 16.75 10.201 18.8247 9.44198L19.2042 10.7323C16.8765 11.5419 14.5742 11.466 12.2971 10.5046C11.6899 10.201 11.0574 10.0492 10.3996 10.0492C9.08399 10.0492 7.97077 10.5173 7.05995 11.4534C6.14914 12.3895 5.69373 13.5154 5.69373 14.831C5.69373 17.1586 6.22504 19.3851 7.28766 21.5103L8.19847 23.4078C8.24907 23.4584 8.27437 23.5343 8.27437 23.6355L9.33699 33.6545C9.43819 34.2111 9.7924 34.54 10.3996 34.6412C10.7032 34.7424 10.9942 34.6918 11.2725 34.4894C11.5508 34.287 11.7152 34.0087 11.7658 33.6545L13.1321 25.5331C13.2333 24.8753 13.5116 24.3313 13.967 23.9012C14.4224 23.4711 14.9537 23.2054 15.5609 23.1042C16.0669 23.003 16.5729 23.041 17.0789 23.2181C17.5849 23.3952 18.0024 23.6861 18.3313 24.0909C18.6602 24.4957 18.85 24.9765 18.9006 25.5331L20.3427 33.6545C20.3427 33.9581 20.4439 34.1985 20.6463 34.3756C20.8487 34.5527 21.0764 34.6665 21.3294 34.7171C21.6836 34.7171 21.9872 34.6159 22.2402 34.4135C22.4932 34.2111 22.645 33.9328 22.6956 33.5786L23.7582 24.4704H23.6823L23.7582 24.015C23.8088 23.6102 23.9859 23.2307 24.2896 22.8765L24.5173 22.7247L25.4281 21.8139ZM29.6026 38.5881V24.0909C29.6026 23.5849 29.4255 23.1295 29.0713 22.7247C28.6665 22.3705 28.1985 22.1934 27.6672 22.1934C27.1359 22.1934 26.6931 22.3705 26.3389 22.7247L25.2004 23.7873C25.0992 23.9391 25.0486 24.0909 25.0486 24.2427L23.9859 33.7304C23.9353 34.287 23.7203 34.7677 23.3408 35.1725C22.9613 35.5773 22.4932 35.8303 21.9366 35.9315C21.2282 36.0834 20.5957 35.9568 20.0391 35.552C19.4825 35.1472 19.1536 34.5906 19.0524 33.8822L17.6861 25.6849C17.5343 24.9259 17.0789 24.4957 16.3199 24.3945C16.0163 24.3439 15.7254 24.3692 15.447 24.4704C15.1687 24.5716 14.941 24.7361 14.7639 24.9638C14.5868 25.1915 14.473 25.4319 14.4224 25.6849L13.0562 33.8822C13.0056 34.1352 12.9423 34.3503 12.8664 34.5274C12.7905 34.7045 12.6767 34.8816 12.5248 35.0587C12.373 35.2358 12.2086 35.3876 12.0315 35.5141C11.8544 35.6406 11.6646 35.7418 11.4622 35.8177C11.2598 35.8936 11.0574 35.9568 10.855 36.0075C10.1466 36.0581 9.52675 35.8683 8.99544 35.4382C8.46413 35.0081 8.17317 34.4388 8.12257 33.7304L6.98405 24.015L5.76963 22.7247C5.36482 22.3705 4.89676 22.1934 4.36545 22.1934C3.83415 22.1934 3.39139 22.3705 3.03718 22.7247C2.63237 23.1295 2.42997 23.5849 2.42997 24.0909V38.5881H29.6026ZM23.4167 3.86324C23.4167 3.86324 23.8911 3.38885 24.8398 2.44009C25.7886 1.49132 27.6039 1.01694 30.2858 1.01694C32.9676 1.01694 35.2573 1.9657 37.1548 3.86324C39.0524 5.76077 40.0011 8.05046 40.0011 10.7323C40.0011 13.4142 39.0524 15.7038 37.1548 17.6014C35.2573 19.4989 32.9676 20.4477 30.2858 20.4477C27.6039 20.4477 25.3142 19.4989 23.4167 17.6014C21.5192 15.7038 20.5704 13.4142 20.5704 10.7323C20.5704 8.05046 21.5192 5.76077 23.4167 3.86324ZM24.3275 16.6906C24.3275 16.6906 24.7386 17.1017 25.5609 17.924C26.3832 18.7462 27.9581 19.1574 30.2858 19.1574C32.6134 19.1574 34.5995 18.3351 36.244 16.6906C37.8885 15.046 38.7108 13.0599 38.7108 10.7323C38.7108 8.40467 37.8885 6.41858 36.244 4.77405C34.5995 3.12952 32.6134 2.30726 30.2858 2.30726C27.9581 2.30726 25.972 3.12952 24.3275 4.77405C22.683 6.41858 21.8607 8.40467 21.8607 10.7323C21.8607 13.0599 22.683 15.046 24.3275 16.6906ZM36.1302 8.15166C36.535 8.15166 36.7374 8.35406 36.7374 8.75887V12.7057C36.7374 13.1105 36.535 13.313 36.1302 13.313H32.8664V16.5767C32.8664 16.9815 32.664 17.1839 32.2592 17.1839H28.3123C27.9075 17.1839 27.7051 16.9815 27.7051 16.5767V13.313H24.4414C24.0365 13.313 23.8341 13.1105 23.8341 12.7057V8.75887C23.8341 8.35406 24.0365 8.15166 24.4414 8.15166H27.7051V4.88791C27.7051 4.4831 27.9075 4.28069 28.3123 4.28069H32.2592C32.664 4.28069 32.8664 4.4831 32.8664 4.88791V8.15166H36.1302ZM35.447 12.0226V9.44198H32.2592C31.8038 9.44198 31.5761 9.21428 31.5761 8.75887V5.57102H28.9954V8.75887C28.9954 9.21428 28.7677 9.44198 28.3123 9.44198H25.1245V12.0226H28.3123C28.7677 12.0226 28.9954 12.2503 28.9954 12.7057V15.8936H31.5761V12.7057C31.5761 12.2503 31.8038 12.0226 32.2592 12.0226H35.447Z" fill="#00BCD4"/>
</svg>
