<svg width="61" height="62" viewBox="0 0 61 62" fill="none" xmlns="http://www.w3.org/2000/svg">
<path d="M1.884 46.6894C1.26667 46.6894 0.958008 46.3807 0.958008 45.7634C0.958008 45.1461 1.26667 44.8374 1.884 44.8374H2.92575C3.38875 43.6799 4.23758 43.0626 5.47224 42.9854C4.93207 42.1366 4.66199 41.2106 4.66199 40.2074C4.66199 38.6641 5.20216 37.3523 6.28249 36.2719C7.36281 35.1916 8.67464 34.6515 10.218 34.6515C11.2211 34.6515 12.1471 34.9215 12.996 35.4617C13.8448 34.9215 14.7708 34.6515 15.7739 34.6515C17.3173 34.6515 18.6291 35.1916 19.7094 36.2719C20.7898 37.3523 21.3299 38.6641 21.3299 40.2074C21.3299 41.2106 21.0984 42.1366 20.6354 42.9854H23.1819C23.9536 42.9854 24.6095 43.2555 25.1497 43.7957C25.6898 44.3358 25.9599 44.9917 25.9599 45.7634V48.5414C25.9599 49.1587 26.2686 49.4674 26.8859 49.4674H34.2939C34.9112 49.4674 35.2199 49.1587 35.2199 48.5414V45.7634C35.2199 45.2232 35.3356 44.741 35.5671 44.3165C35.7986 43.8921 36.1459 43.5642 36.6089 43.3327C37.0719 43.1012 37.5349 42.9854 37.9979 42.9854H40.5443C40.0813 42.1366 39.8498 41.2106 39.8498 40.2074C39.8498 38.6641 40.39 37.3523 41.4703 36.2719C42.5507 35.1916 43.8625 34.6515 45.4058 34.6515C46.409 34.6515 47.335 34.9215 48.1838 35.4617C49.0326 34.9215 49.9586 34.6515 50.9618 34.6515C52.5051 34.6515 53.817 35.1916 54.8973 36.2719C55.9776 37.3523 56.5178 38.6641 56.5178 40.2074C56.5178 41.2106 56.2477 42.1366 55.7075 42.9854C56.9422 43.0626 57.791 43.6799 58.254 44.8374H59.2958C59.9131 44.8374 60.2218 45.1461 60.2218 45.7634C60.2218 46.3807 59.9131 46.6894 59.2958 46.6894H57.4438C56.8264 46.6894 56.5178 46.3807 56.5178 45.7634C56.5178 45.1461 56.2091 44.8374 55.5918 44.8374H54.55L53.7398 50.5091C53.7398 50.5091 53.7398 50.5477 53.7398 50.6249C53.6626 50.7021 53.624 50.7406 53.624 50.7406C53.624 50.8178 53.5855 50.895 53.5083 50.9721C53.4311 51.0493 53.3925 51.0879 53.3925 51.0879C53.3925 51.0879 53.354 51.1265 53.2768 51.2036C53.2768 51.2036 53.2382 51.2036 53.161 51.2036C53.0839 51.2808 52.9681 51.3194 52.8138 51.3194H51.4248C50.6531 51.3194 49.9972 51.0493 49.4571 50.5091C48.9169 49.969 48.6468 49.3131 48.6468 48.5414V46.2264C48.6468 45.9177 48.4925 45.7634 48.1838 45.7634C47.8751 45.7634 47.7208 45.9177 47.7208 46.2264V48.5414C47.7208 49.3131 47.4507 49.969 46.9106 50.5091C46.3704 51.0493 45.7145 51.3194 44.9428 51.3194H43.5538C43.3995 51.3194 43.2837 51.2808 43.2066 51.2036C43.2066 51.2036 43.168 51.2036 43.0908 51.2036C43.0137 51.1265 42.9751 51.0879 42.9751 51.0879C42.8979 51.0879 42.84 51.0493 42.8015 50.9721C42.7629 50.895 42.7436 50.8178 42.7436 50.7406C42.7436 50.7406 42.7243 50.7021 42.6857 50.6249C42.6471 50.5477 42.6278 50.5091 42.6278 50.5091L41.8176 44.8374H37.9979C37.3805 44.8374 37.0719 45.1461 37.0719 45.7634V48.5414C37.0719 48.9272 36.9947 49.2938 36.8404 49.641C36.686 49.9883 36.4931 50.2776 36.2616 50.5091C36.0301 50.7406 35.7407 50.9336 35.3935 51.0879C35.0462 51.2422 34.6797 51.3194 34.2939 51.3194H26.8859C26.1142 51.3194 25.4583 51.0493 24.9182 50.5091C24.378 49.969 24.1079 49.3131 24.1079 48.5414V45.7634C24.1079 45.1461 23.7992 44.8374 23.1819 44.8374H19.3622L18.5519 50.5091C18.5519 50.5091 18.5519 50.5477 18.5519 50.6249C18.4748 50.7021 18.4362 50.7406 18.4362 50.7406C18.4362 50.8178 18.4169 50.895 18.3783 50.9721C18.3397 51.0493 18.2819 51.0879 18.2047 51.0879C18.2047 51.0879 18.1661 51.1265 18.0889 51.2036C18.0118 51.2036 17.9732 51.2036 17.9732 51.2036C17.896 51.2808 17.7803 51.3194 17.6259 51.3194H16.2369C15.4653 51.3194 14.8094 51.0493 14.2692 50.5091C13.729 49.969 13.459 49.3131 13.459 48.5414V46.2264C13.459 45.9177 13.3046 45.7634 12.996 45.7634C12.6873 45.7634 12.533 45.9177 12.533 46.2264V48.5414C12.533 49.3131 12.2629 49.969 11.7227 50.5091C11.1825 51.0493 10.5266 51.3194 9.75497 51.3194H8.36598C8.21164 51.3194 8.0959 51.2808 8.01873 51.2036C8.01873 51.2036 7.98015 51.2036 7.90298 51.2036C7.82581 51.1265 7.78723 51.0879 7.78723 51.0879C7.71006 51.0879 7.65219 51.0493 7.61361 50.9721C7.57502 50.895 7.55573 50.8178 7.55573 50.7406C7.55573 50.7406 7.53644 50.7021 7.49786 50.6249C7.45927 50.5477 7.43998 50.5091 7.43998 50.5091L6.62973 44.8374H5.58799C4.97066 44.8374 4.66199 45.1461 4.66199 45.7634C4.66199 46.3807 4.35333 46.6894 3.736 46.6894H1.884ZM45.4058 36.5034C44.4027 36.5034 43.5345 36.87 42.8015 37.6031C42.0684 38.3361 41.7018 39.2043 41.7018 40.2074C41.7018 41.4421 42.2034 42.4453 43.2066 43.2169C43.2837 43.2169 43.3416 43.2555 43.3802 43.3327C43.4188 43.4098 43.4381 43.4484 43.4381 43.4484C43.4381 43.5256 43.4381 43.6027 43.4381 43.6799H43.5538C43.5538 43.6799 43.5538 43.7185 43.5538 43.7957L44.3641 49.4674H44.9428C45.5602 49.4674 45.8688 49.1587 45.8688 48.5414V46.2264C45.8688 45.6091 46.1003 45.0689 46.5633 44.6059C47.0263 44.1429 47.5665 43.9114 48.1838 43.9114C48.8011 43.9114 49.3413 44.1429 49.8043 44.6059C50.2673 45.0689 50.4988 45.6091 50.4988 46.2264V48.5414C50.4988 49.1587 50.8075 49.4674 51.4248 49.4674H52.0035L52.8138 43.7957C52.8138 43.7185 52.8138 43.6799 52.8138 43.6799C52.891 43.6027 52.9295 43.5256 52.9295 43.4484C52.9295 43.4484 52.9488 43.4291 52.9874 43.3905C53.026 43.352 53.0453 43.3327 53.0453 43.3327C53.0453 43.2555 53.0646 43.2169 53.1032 43.2169C53.1418 43.2169 53.161 43.2169 53.161 43.2169C54.1642 42.4453 54.6658 41.4421 54.6658 40.2074C54.6658 39.2043 54.2992 38.3361 53.5662 37.6031C52.8331 36.87 51.965 36.5034 50.9618 36.5034C50.113 36.5034 49.3799 36.7735 48.7626 37.3137C48.3767 37.5452 47.9909 37.5452 47.6051 37.3137C46.9106 36.7735 46.1775 36.5034 45.4058 36.5034ZM10.218 36.5034C9.21481 36.5034 8.34669 36.87 7.61361 37.6031C6.88053 38.3361 6.51398 39.2043 6.51398 40.2074C6.51398 41.4421 7.01557 42.4453 8.01873 43.2169C8.01873 43.2169 8.03802 43.2169 8.0766 43.2169C8.11519 43.2169 8.15377 43.2555 8.19235 43.3327C8.23094 43.4098 8.25023 43.4484 8.25023 43.4484C8.25023 43.5256 8.28881 43.6027 8.36598 43.6799C8.36598 43.6799 8.36598 43.7185 8.36598 43.7957L9.17622 49.4674H9.75497C10.3723 49.4674 10.681 49.1587 10.681 48.5414V46.2264C10.681 45.6091 10.9125 45.0689 11.3755 44.6059C11.8385 44.1429 12.3786 43.9114 12.996 43.9114C13.6133 43.9114 14.1535 44.1429 14.6165 44.6059C15.0794 45.0689 15.3109 45.6091 15.3109 46.2264V48.5414C15.3109 49.1587 15.6196 49.4674 16.2369 49.4674H16.8157L17.6259 43.7957C17.6259 43.7185 17.6259 43.6799 17.6259 43.6799C17.7031 43.6027 17.7417 43.5256 17.7417 43.4484C17.7417 43.4484 17.7803 43.4098 17.8574 43.3327C17.8574 43.2555 17.896 43.2169 17.9732 43.2169C18.9764 42.4453 19.4779 41.4421 19.4779 40.2074C19.4779 39.2043 19.1114 38.3361 18.3783 37.6031C17.6452 36.87 16.7771 36.5034 15.7739 36.5034C15.0023 36.5034 14.2692 36.7735 13.5747 37.3137C13.1889 37.5452 12.803 37.5452 12.4172 37.3137C11.7999 36.7735 11.0668 36.5034 10.218 36.5034ZM33.8309 41.1334C33.0592 41.1334 32.4033 40.8633 31.8631 40.3232C31.323 39.783 31.0529 39.1271 31.0529 38.3554V36.0404C31.0529 35.7318 30.8986 35.5774 30.5899 35.5774C30.2812 35.5774 30.1269 35.7318 30.1269 36.0404V38.3554C30.1269 39.1271 29.8568 39.783 29.3166 40.3232C28.7765 40.8633 28.1206 41.1334 27.3489 41.1334H25.9599C25.8056 41.1334 25.6898 41.0948 25.6127 41.0177C25.6127 41.0177 25.5741 41.0177 25.4969 41.0177C25.4197 40.9405 25.3812 40.9019 25.3812 40.9019C25.304 40.9019 25.2461 40.8633 25.2075 40.7862C25.1689 40.709 25.1497 40.6318 25.1497 40.5547C25.1497 40.5547 25.1304 40.5161 25.0918 40.4389C25.0532 40.3618 25.0339 40.3232 25.0339 40.3232L24.1079 34.1885C22.8733 33.1081 22.2559 31.7191 22.2559 30.0215C22.2559 28.4781 22.7961 27.1663 23.8764 26.086C24.9567 25.0057 26.2686 24.4655 27.8119 24.4655C28.8151 24.4655 29.7411 24.7356 30.5899 25.2757C31.4387 24.7356 32.3647 24.4655 33.3679 24.4655C34.9112 24.4655 36.223 25.0057 37.3034 26.086C38.3837 27.1663 38.9239 28.4781 38.9239 30.0215C38.9239 31.7191 38.3065 33.1081 37.0719 34.1885L36.1459 40.3232C36.1459 40.3232 36.1459 40.3618 36.1459 40.4389C36.0687 40.5161 36.0301 40.5547 36.0301 40.5547C36.0301 40.6318 35.9915 40.709 35.9144 40.7862C35.8372 40.8633 35.7986 40.9019 35.7986 40.9019C35.7986 40.9019 35.76 40.9405 35.6829 41.0177C35.6057 41.0177 35.5671 41.0177 35.5671 41.0177C35.4899 41.0948 35.3742 41.1334 35.2199 41.1334H33.8309ZM28.9694 34.42C28.9694 34.42 29.0851 34.3042 29.3166 34.0727C29.5481 33.8412 29.9726 33.7255 30.5899 33.7255C31.2072 33.7255 31.7474 33.957 32.2104 34.42C32.6734 34.883 32.9049 35.4231 32.9049 36.0404V38.3554C32.9049 38.9728 33.2135 39.2814 33.8309 39.2814H34.4096L35.2199 33.6097C35.2199 33.5325 35.2199 33.494 35.2199 33.494C35.297 33.4168 35.3356 33.3396 35.3356 33.2625C35.3356 33.2625 35.3742 33.2239 35.4514 33.1467L35.5671 33.031C36.5703 32.2593 37.0719 31.2561 37.0719 30.0215C37.0719 29.0183 36.7053 28.1502 35.9722 27.4171C35.2392 26.684 34.371 26.3175 33.3679 26.3175C32.5962 26.3175 31.8631 26.5876 31.1686 27.1277C30.7828 27.3592 30.397 27.3592 30.0111 27.1277C29.3166 26.5876 28.5836 26.3175 27.8119 26.3175C26.8087 26.3175 25.9406 26.684 25.2075 27.4171C24.4745 28.1502 24.1079 29.0183 24.1079 30.0215C24.1079 31.2561 24.6095 32.2593 25.6127 33.031C25.6898 33.031 25.767 33.1081 25.8442 33.2625C25.8442 33.3396 25.8827 33.4168 25.9599 33.494C25.9599 33.5711 25.9599 33.6097 25.9599 33.6097L26.7702 39.2814H27.3489C27.9662 39.2814 28.2749 38.9728 28.2749 38.3554V36.0404C28.2749 35.4231 28.5064 34.883 28.9694 34.42ZM59.2958 58.7274C59.9131 58.7274 60.2218 59.036 60.2218 59.6533C60.2218 60.2707 59.9131 60.5793 59.2958 60.5793H1.884C1.26667 60.5793 0.958008 60.2707 0.958008 59.6533C0.958008 59.036 1.26667 58.7274 1.884 58.7274H59.2958ZM30.8214 16.1315C33.2907 16.0544 35.4128 15.1284 37.1876 13.3535C38.9624 11.5787 39.8498 9.41806 39.8498 6.87157V2.24158C39.8498 1.62426 40.1585 1.31559 40.7758 1.31559C41.3932 1.31559 41.7018 1.62426 41.7018 2.24158V6.87157C41.7018 9.49522 40.853 11.8295 39.1553 13.8744C37.4577 15.9193 35.3356 17.2119 32.7891 17.752C32.8663 17.9835 32.9049 18.215 32.9049 18.4465C32.9049 18.4465 32.9049 18.5237 32.9049 18.678C35.6829 18.1379 37.9979 16.7489 39.8498 14.511C41.7018 12.2732 42.6278 9.72672 42.6278 6.87157V2.24158C42.6278 1.62426 42.9365 1.31559 43.5538 1.31559C44.1712 1.31559 44.4798 1.62426 44.4798 2.24158V6.87157C44.4798 9.26373 43.9204 11.463 42.8015 13.4693C41.6825 15.4756 40.1585 17.1347 38.2294 18.4465C40.1585 19.6812 41.6825 21.321 42.8015 23.3659C43.9204 25.4108 44.4798 27.6293 44.4798 30.0215V31.8735C44.4798 32.4908 44.1712 32.7995 43.5538 32.7995H40.7758C40.1585 32.7995 39.8498 32.4908 39.8498 31.8735V30.0215C39.8498 27.475 38.9431 25.295 37.1297 23.4816C35.3163 21.6682 33.1364 20.7615 30.5899 20.7615C28.0434 20.7615 25.8634 21.6682 24.05 23.4816C22.2366 25.295 21.3299 27.475 21.3299 30.0215V31.8735C21.3299 32.4908 21.0213 32.7995 20.4039 32.7995H17.6259C17.0086 32.7995 16.6999 32.4908 16.6999 31.8735V30.0215C16.6999 28.864 16.8543 27.7065 17.1629 26.549C17.4716 25.3915 17.896 24.3305 18.4362 23.3659C18.9764 22.4013 19.6323 21.4946 20.4039 20.6458C21.1756 19.7969 22.0244 19.0639 22.9504 18.4465C21.6386 17.5977 20.5197 16.5752 19.5937 15.3792C18.6677 14.1831 17.9539 12.852 17.4523 11.3858C16.9507 9.91964 16.6999 8.41489 16.6999 6.87157V2.24158C16.6999 1.62426 17.0086 1.31559 17.6259 1.31559C18.2433 1.31559 18.5519 1.62426 18.5519 2.24158V6.87157C18.5519 9.10939 19.1114 11.1543 20.2303 13.0063C21.3492 14.8583 22.8733 16.3244 24.8024 17.4048C25.1882 17.2504 25.5741 17.0961 25.9599 16.9418C24.0307 16.0158 22.4681 14.6461 21.272 12.8327C20.076 11.0193 19.4779 9.03223 19.4779 6.87157V2.24158C19.4779 1.62426 19.7866 1.31559 20.4039 1.31559C21.0213 1.31559 21.3299 1.62426 21.3299 2.24158V6.87157C21.3299 9.41806 22.2173 11.5787 23.9922 13.3535C25.767 15.1284 27.8891 16.0544 30.3584 16.1315C30.4356 16.1315 30.4934 16.1315 30.532 16.1315C30.5706 16.1315 30.5899 16.1315 30.5899 16.1315C30.5899 16.1315 30.6092 16.1315 30.6478 16.1315C30.6863 16.1315 30.7442 16.1315 30.8214 16.1315ZM19.4779 30.0215C19.4779 28.9411 19.6323 27.8994 19.9409 26.8962C20.2496 25.8931 20.6547 24.9671 21.1563 24.1182C21.6579 23.2694 22.2752 22.517 23.0083 21.8611C23.7414 21.2052 24.5709 20.6265 25.4969 20.1249C26.4229 19.6233 27.3875 19.2953 28.3906 19.141C28.3135 18.9095 28.2749 18.678 28.2749 18.4465C28.2749 18.3694 28.2749 18.3115 28.2749 18.2729C28.2749 18.2343 28.2749 18.215 28.2749 18.215C25.4969 18.7552 23.1819 20.1249 21.3299 22.3241C19.4779 24.5234 18.5519 27.0891 18.5519 30.0215V30.9475H19.4779V30.0215ZM42.6278 30.0215C42.6278 28.9411 42.4735 27.8801 42.1648 26.8384C41.8562 25.7966 41.451 24.8127 40.9495 23.8867C40.4479 22.9608 39.792 22.1312 38.9817 21.3981C38.1715 20.6651 37.3034 20.0284 36.3774 19.4883C35.9915 19.6426 35.6057 19.7969 35.2199 19.9513C37.149 20.8001 38.7116 22.1312 39.9077 23.9446C41.1038 25.758 41.7018 27.7836 41.7018 30.0215V30.9475H42.6278V30.0215ZM31.0529 18.4465C31.0529 18.215 30.9371 18.0607 30.7056 17.9835C30.6285 17.9835 30.5899 17.9835 30.5899 17.9835C30.5899 17.9835 30.5706 17.9835 30.532 17.9835C30.4934 17.9835 30.4356 17.9835 30.3584 17.9835C30.2041 18.0607 30.1269 18.215 30.1269 18.4465C30.1269 18.7552 30.2812 18.9095 30.5899 18.9095C30.8986 18.9095 31.0529 18.7552 31.0529 18.4465Z" fill="white"/>
</svg>
