<svg width="61" height="62" viewBox="0 0 61 62" fill="none" xmlns="http://www.w3.org/2000/svg">
<path d="M23.2977 29.4525L23.9922 31.1888L20.9827 32.462C19.8252 32.925 18.7063 32.8864 17.6259 32.3463C16.6999 31.8061 16.044 31.0152 15.6582 29.9734C15.2724 28.9317 15.3495 27.9092 15.8897 26.9061L16.5842 25.5171L11.8385 20.8871L10.5652 22.1603C10.1022 22.6233 9.63922 22.6233 9.17622 22.1603L5.93524 18.9193L5.58799 19.1508C5.20216 19.6138 4.77774 19.6524 4.31474 19.2666L1.30526 16.7201C1.07376 16.4886 0.958008 16.2185 0.958008 15.9099V3.1774C0.958008 2.86874 1.07376 2.59866 1.30526 2.36716C1.76825 1.90416 2.23125 1.94274 2.69425 2.48291L11.607 11.8586C11.9928 12.3216 11.9542 12.7846 11.4912 13.2476L11.2597 13.4791L14.5007 16.8358C14.9637 17.2988 14.9637 17.7618 14.5007 18.2248L13.2275 19.4981L17.9732 24.1281C18.5905 24.8226 18.7063 25.5942 18.3204 26.4431L17.6259 27.8321C17.3944 28.3722 17.3944 28.9124 17.6259 29.4525C17.7803 29.9927 18.1275 30.3785 18.6677 30.61C19.2078 30.8415 19.7094 30.8415 20.1724 30.61L23.2977 29.4525ZM5.24074 16.8358L9.17622 12.7846L9.40772 12.5531L2.92575 5.60814V15.5626L4.89349 17.1831L5.24074 16.8358ZM9.87072 20.0768L12.4172 17.5303L9.87072 14.8681L7.32423 17.5303L9.87072 20.0768ZM58.4855 31.073C58.7942 30.7644 59.1607 30.6872 59.5851 30.8415C60.0096 30.9959 60.2218 31.3045 60.2218 31.7675V37.6708C60.2218 37.9794 60.1446 38.2109 59.9903 38.3653L49.1098 49.2457C48.6468 49.7087 48.1838 49.7087 47.7208 49.2457L46.9106 48.4355L43.0908 52.2552C43.9397 53.1812 44.3641 54.2615 44.3641 55.4962C44.3641 57.1167 43.5924 58.5057 42.0491 59.6632C40.5058 60.8207 38.6538 61.3994 36.4931 61.3994C34.3325 61.3994 32.4805 60.8207 30.9371 59.6632C29.3938 58.5057 28.6221 57.1167 28.6221 55.4962C28.6221 53.8757 29.3938 52.4867 30.9371 51.3292C32.4805 50.1717 34.3325 49.593 36.4931 49.593C38.3451 49.5158 40.0428 49.9788 41.5861 50.982L45.5216 47.0465L44.7113 46.2362C44.2483 45.7732 44.2483 45.3102 44.7113 44.8472L58.4855 31.073ZM32.3261 58.2742C32.3261 58.2742 32.6155 58.4671 33.1942 58.8529C33.773 59.2388 34.8726 59.4317 36.4931 59.4317C38.1136 59.4317 39.5026 59.0458 40.6601 58.2742C41.8176 57.5025 42.3963 56.5765 42.3963 55.4962C42.3963 54.4159 41.8176 53.4899 40.6601 52.7182C39.5026 51.9465 38.1136 51.5607 36.4931 51.5607C34.8726 51.5607 33.4836 51.9465 32.3261 52.7182C31.1686 53.4899 30.5899 54.4159 30.5899 55.4962C30.5899 56.5765 31.1686 57.5025 32.3261 58.2742ZM58.254 37.3235V34.1983L46.7948 45.5417L48.4153 47.1622L58.254 37.3235ZM34.9884 35.4715L36.9561 47.3937L35.1041 47.741L33.0206 35.8188C32.9435 35.2014 32.6734 34.6999 32.2104 34.314C31.7474 33.9282 31.2072 33.7353 30.5899 33.7353C29.9726 33.7353 29.4324 33.9282 28.9694 34.314C28.5064 34.6999 28.2363 35.2014 28.1591 35.8188L25.1497 53.7599C24.9953 54.6859 24.5709 55.4962 23.8764 56.1907C23.1819 56.8852 22.3331 57.3096 21.3299 57.4639C20.1724 57.6183 19.0921 57.3096 18.0889 56.5379C17.0858 55.7663 16.507 54.8017 16.3527 53.6442L13.8062 35.1243L13.459 34.4298C11.607 31.4975 10.2951 28.3722 9.52347 25.0541L11.4912 24.5911C12.1857 27.7549 13.3818 30.6486 15.0794 33.2723L15.6582 34.1983C15.7354 34.3526 15.7739 34.4684 15.7739 34.5455L18.3204 53.2969C18.4748 54.5316 19.1693 55.2261 20.4039 55.3804C20.7898 55.4576 21.1949 55.419 21.6193 55.2647C22.0437 55.1104 22.391 54.8789 22.661 54.5702C22.9311 54.2615 23.1047 53.8757 23.1819 53.4127L26.1914 35.4715C26.3457 34.5455 26.7509 33.7546 27.4068 33.0987C28.0627 32.4427 28.8922 32.0376 29.8954 31.8833C30.6671 31.729 31.4194 31.7868 32.1525 32.0569C32.8856 32.327 33.5029 32.7707 34.0045 33.388C34.5061 34.0054 34.834 34.6999 34.9884 35.4715ZM39.8498 6.07114C43.3223 6.07114 46.2739 7.28651 48.7047 9.71725C51.1354 12.148 52.3508 15.0996 52.3508 18.5721C52.3508 24.2824 50.8461 29.5683 47.8366 34.4298L47.3736 35.1243L46.5633 40.796L44.5956 40.5645L45.4058 34.5455C45.4058 34.4684 45.4444 34.3526 45.5216 34.1983L46.1003 33.2723C48.9555 28.7966 50.3831 23.8966 50.3831 18.5721C50.3831 17.1059 50.0744 15.7169 49.4571 14.4051C48.3767 11.7815 46.4862 9.92946 43.7853 8.84913C41.0845 7.7688 38.3837 7.80738 35.6829 8.96488C34.0624 9.65938 32.3647 10.0066 30.5899 10.0066C28.8151 10.0066 27.1174 9.65938 25.4969 8.96488C24.1851 8.34755 22.7961 8.03888 21.3299 8.03888C18.2433 8.03888 15.6582 9.19638 13.5747 11.5114L12.07 10.2381C13.8448 8.2318 16.044 6.93926 18.6677 6.36052C21.2913 5.78177 23.7992 6.03256 26.1914 7.11289C27.5804 7.73022 29.0466 8.03888 30.5899 8.03888C32.1332 8.03888 33.5994 7.73022 34.9884 7.11289C36.5317 6.41839 38.1522 6.07114 39.8498 6.07114Z" fill="white"/>
</svg>
