<svg width="61" height="62" viewBox="0 0 61 62" fill="none" xmlns="http://www.w3.org/2000/svg">
<path d="M14.385 21.1184C14.385 21.5814 14.385 22.0829 14.385 22.6231L12.4172 22.7388C12.4172 22.1987 12.4172 21.6585 12.4172 21.1184V20.7711H14.385V21.1184ZM14.5007 24.4751C15.0409 29.1051 16.5842 33.3878 19.1307 37.3233L17.5102 38.365C14.8094 34.198 13.1889 29.6452 12.6487 24.7066L14.5007 24.4751ZM36.1459 11.3954L37.3034 13.0159C35.297 14.3277 33.0592 14.9836 30.5899 14.9836C28.1206 14.9836 25.8827 14.3277 23.8764 13.0159L25.0339 11.3954C26.6544 12.5529 28.5064 13.1316 30.5899 13.1316C32.6734 13.1316 34.5254 12.5529 36.1459 11.3954ZM9.52347 38.9438C9.52347 40.7958 10.1794 42.3777 11.4912 43.6895C12.803 45.0013 14.385 45.6573 16.2369 45.6573V47.5092C14.385 47.5092 12.803 48.1652 11.4912 49.477C10.1794 50.7888 9.52347 52.3707 9.52347 54.2227H7.67148C7.67148 52.3707 7.01557 50.7888 5.70374 49.477C4.39191 48.1652 2.81 47.5092 0.958008 47.5092V45.6573C2.81 45.6573 4.39191 45.0013 5.70374 43.6895C7.01557 42.3777 7.67148 40.7958 7.67148 38.9438H9.52347ZM8.59748 50.2872C9.44631 48.6667 10.681 47.4321 12.3015 46.5832C10.681 45.7344 9.44631 44.4998 8.59748 42.8793C7.74865 44.4998 6.51398 45.7344 4.89349 46.5832C6.51398 47.4321 7.74865 48.6667 8.59748 50.2872ZM53.5083 14.0576C53.5083 15.9096 54.1642 17.4915 55.476 18.8034C56.7879 20.1152 58.3698 20.7711 60.2218 20.7711V22.7388C58.3698 22.7388 56.7879 23.3755 55.476 24.6487C54.1642 25.922 53.5083 27.4846 53.5083 29.3366H51.6563C51.6563 29.3366 51.6563 29.298 51.6563 29.2208C50.6531 33.2335 49.0712 36.9375 46.9106 40.3328C44.9042 43.4966 43.4381 46.8533 42.5121 50.403L41.4703 54.57C41.3932 55.1101 41.2003 55.5538 40.8916 55.9011C40.5829 56.2483 40.1971 56.5377 39.7341 56.7692C39.2711 57.0007 38.8081 57.1165 38.3451 57.1165C37.4963 57.1165 36.7632 56.8464 36.1459 56.3062C35.5285 55.766 35.1813 55.1101 35.1041 54.3385L32.9049 39.9855C32.8277 39.4454 32.5769 38.9824 32.1525 38.5965C31.7281 38.2107 31.2072 38.0178 30.5899 38.0178C29.9726 38.0178 29.4517 38.2107 29.0273 38.5965C28.6029 38.9824 28.3521 39.4454 28.2749 39.9855L26.0757 54.3385C25.9985 55.1101 25.6512 55.766 25.0339 56.3062C24.4166 56.8464 23.6835 57.1165 22.8347 57.1165C22.063 57.1165 21.3878 56.885 20.8091 56.422C20.2303 55.959 19.8638 55.3416 19.7094 54.57L18.6677 50.403C17.7417 46.8533 16.2755 43.4966 14.2692 40.3328C10.4881 34.4681 8.59748 28.0633 8.59748 21.1184V18.5719C8.59748 15.2537 9.79356 12.3986 12.1857 10.0064C14.5779 7.61424 17.433 6.41816 20.7512 6.41816C23.1433 6.41816 25.304 7.0355 27.2332 8.27016C29.471 9.81348 31.7088 9.81348 33.9466 8.27016C35.8758 7.0355 38.0364 6.41816 40.4286 6.41816C42.8979 6.41816 45.1743 7.13195 47.2578 8.55953C49.3413 9.98711 50.8075 11.8198 51.6563 14.0576H53.5083ZM45.2901 39.291C47.9909 35.124 49.6886 30.5326 50.3831 25.5168C49.0712 23.6648 47.2578 22.7388 44.9428 22.7388V20.7711C47.4122 20.7711 49.3027 19.7294 50.6146 17.6459L50.4988 17.0671C50.1901 14.5978 49.0712 12.5336 47.1421 10.8745C45.2129 9.21544 42.9751 8.38591 40.4286 8.38591C38.4223 8.38591 36.6089 8.88749 34.9884 9.89065C33.6765 10.7395 32.2104 11.1639 30.5899 11.1639C28.9694 11.1639 27.5032 10.7395 26.1914 9.89065C24.5709 8.88749 22.7575 8.38591 20.7512 8.38591C17.896 8.38591 15.4846 9.36978 13.5168 11.3375C11.5491 13.3053 10.5652 15.7167 10.5652 18.5719V21.1184C10.5652 27.6775 12.34 33.7351 15.8897 39.291C17.9732 42.6092 19.5165 46.1588 20.5197 49.94L21.5614 54.107C21.7158 54.8015 22.1402 55.1487 22.8347 55.1487C23.6063 55.1487 24.0693 54.7629 24.2237 53.9912L26.3072 39.754C26.4615 38.6737 26.9438 37.7863 27.754 37.0918C28.5643 36.3973 29.5096 36.05 30.5899 36.05C31.1301 36.05 31.6316 36.1465 32.0946 36.3394C32.5576 36.5323 32.982 36.7831 33.3679 37.0918C33.7537 37.4005 34.0817 37.7863 34.3517 38.2493C34.6218 38.7123 34.7955 39.2139 34.8726 39.754L36.9561 53.9912C37.1104 54.7629 37.5734 55.1487 38.3451 55.1487C39.0396 55.1487 39.464 54.8015 39.6183 54.107L40.6601 49.94C41.6633 46.1588 43.2066 42.6092 45.2901 39.291ZM52.5823 25.4011C53.4311 23.7806 54.6658 22.5459 56.2863 21.6971C54.6658 20.8483 53.4311 19.6136 52.5823 17.9931C51.7335 19.6136 50.4988 20.8483 48.8783 21.6971C50.4988 22.5459 51.7335 23.7806 52.5823 25.4011Z" fill="white"/>
</svg>
