<svg width="61" height="62" viewBox="0 0 61 62" fill="none" xmlns="http://www.w3.org/2000/svg">
<path d="M21.7929 13.8264C21.1756 13.8264 20.8669 13.4984 20.8669 12.8425C20.8669 12.1866 21.1949 11.8586 21.8508 11.8586C22.5067 11.8586 23.2398 11.6464 24.05 11.222C24.8603 10.7976 25.6512 10.2767 26.4229 9.65938C27.1946 9.04205 27.8698 8.4633 28.4485 7.92313C29.0273 7.38297 29.5095 6.88139 29.8954 6.41839C30.2812 5.87823 30.7249 5.82035 31.2265 6.24477C31.7281 6.66918 31.7474 7.11289 31.2844 7.57589C30.8214 8.19322 30.2426 8.86842 29.5481 9.6015C28.8536 10.3346 27.7154 11.222 26.1335 12.2637C24.5516 13.3055 23.1047 13.8264 21.7929 13.8264ZM47.1421 32.2305H14.0377C13.5747 32.2305 13.266 31.999 13.1117 31.536C12.9574 30.8415 12.4944 29.9541 11.7227 28.8738C11.5684 28.5651 11.414 28.2951 11.2597 28.0636C8.63605 24.0509 7.32422 19.4595 7.32422 14.2894V11.8586C7.32422 10.7783 7.47855 9.79442 7.78722 8.90701C8.09588 8.01959 8.50101 7.24793 9.00259 6.59201C9.50417 5.9361 10.1215 5.33806 10.8546 4.7979C11.5877 4.25773 12.34 3.83332 13.1117 3.52465C13.8834 3.21599 14.6743 2.9459 15.4846 2.71441C16.2948 2.48291 17.0665 2.32858 17.7996 2.25141C18.5326 2.17424 19.2464 2.13566 19.9409 2.13566C24.0307 2.13566 27.5804 3.33174 30.5899 5.72389C33.5994 3.33174 37.149 2.13566 41.2388 2.13566C42.4735 2.13566 43.766 2.28999 45.1164 2.59866C46.4669 2.90732 47.8366 3.4089 49.2255 4.1034C50.6145 4.7979 51.7335 5.82035 52.5823 7.17076C53.4311 8.52118 53.8555 10.0838 53.8555 11.8586V14.2894C53.8555 19.3823 52.5437 23.9737 49.92 28.0636C49.7657 28.2951 49.6114 28.5651 49.457 28.8738C48.6854 29.9541 48.2224 30.8415 48.0681 31.536C47.9137 31.999 47.6051 32.2305 47.1421 32.2305ZM14.8479 30.2628H46.3318C46.6405 29.5683 47.1421 28.7195 47.8366 27.7163C47.9909 27.4848 48.1452 27.2533 48.2995 27.0218C50.7689 23.3178 52.0035 19.0737 52.0035 14.2894V11.8586C52.0035 10.3925 51.6177 9.1385 50.846 8.09676C50.0744 7.05501 49.2448 6.28335 48.3574 5.78177C47.47 5.28019 46.4283 4.89436 45.2322 4.62427C44.0361 4.35419 43.168 4.19986 42.6278 4.16127C42.0877 4.12269 41.6247 4.1034 41.2388 4.1034C39.3868 4.1034 37.5927 4.43136 35.8565 5.08727C34.1202 5.74319 33.0013 6.26406 32.4997 6.64989C31.9982 7.03572 31.593 7.38297 31.2844 7.69164C30.8214 8.15463 30.3584 8.15463 29.8954 7.69164C29.5867 7.38297 29.1816 7.03572 28.68 6.64989C28.1784 6.26406 27.0595 5.74319 25.3233 5.08727C23.587 4.43136 21.7929 4.1034 19.9409 4.1034C19.7094 4.1034 19.4393 4.1034 19.1307 4.1034C18.822 4.1034 18.3011 4.16127 17.5681 4.27702C16.835 4.39277 16.1405 4.54711 15.4846 4.74002C14.8286 4.93294 14.0956 5.22231 13.2853 5.60814C12.4751 5.99398 11.7806 6.43768 11.2018 6.93926C10.6231 7.44085 10.1408 8.11605 9.75496 8.96488C9.36913 9.81371 9.17621 10.7783 9.17621 11.8586V14.2894C9.17621 19.0737 10.4109 23.3178 12.8802 27.0218C13.0345 27.2533 13.1889 27.4848 13.3432 27.7163C14.0377 28.7195 14.5393 29.5683 14.8479 30.2628ZM44.2483 36.166H16.9314C16.3141 36.166 16.0054 35.8188 16.0054 35.1243V31.3045C16.0054 30.61 16.3141 30.2628 16.9314 30.2628H44.2483C44.8656 30.2628 45.1743 30.61 45.1743 31.3045V35.1243C45.1743 35.8188 44.8656 36.166 44.2483 36.166ZM17.9732 34.1983H43.2066V32.2305H17.9732V34.1983ZM33.4836 61.3994H27.6961C27.3103 61.3994 27.0016 61.2065 26.7701 60.8207L23.8764 55.0332C23.7992 54.8789 23.7607 54.7245 23.7607 54.5702V35.1243C23.7607 34.5069 24.1079 34.1983 24.8024 34.1983H36.3773C37.0718 34.1983 37.4191 34.5069 37.4191 35.1243V54.5702C37.4191 54.7245 37.3805 54.8789 37.3033 55.0332L34.4096 60.8207C34.1781 61.2065 33.8694 61.3994 33.4836 61.3994ZM28.2749 59.4317H32.9049L35.4514 54.3387V36.166H25.7284V54.3387L28.2749 59.4317ZM38.3451 41.0275H22.8347C22.1402 41.0275 21.7929 40.6995 21.7929 40.0436C21.7929 39.3877 22.1402 39.0598 22.8347 39.0598H38.3451C39.0396 39.0598 39.3868 39.3877 39.3868 40.0436C39.3868 40.6995 39.0396 41.0275 38.3451 41.0275ZM38.3451 44.8472H22.8347C22.1402 44.8472 21.7929 44.5386 21.7929 43.9212C21.7929 43.3039 22.1402 42.9952 22.8347 42.9952H38.3451C39.0396 42.9952 39.3868 43.3039 39.3868 43.9212C39.3868 44.5386 39.0396 44.8472 38.3451 44.8472ZM38.3451 48.7827H22.8347C22.1402 48.7827 21.7929 48.4548 21.7929 47.7988C21.7929 47.1429 22.1402 46.815 22.8347 46.815H38.3451C39.0396 46.815 39.3868 47.1429 39.3868 47.7988C39.3868 48.4548 39.0396 48.7827 38.3451 48.7827ZM38.3451 52.6025H22.8347C22.1402 52.6025 21.7929 52.2938 21.7929 51.6765C21.7929 51.0591 22.1402 50.7505 22.8347 50.7505H38.3451C39.0396 50.7505 39.3868 51.0591 39.3868 51.6765C39.3868 52.2938 39.0396 52.6025 38.3451 52.6025ZM38.3451 56.5379H22.8347C22.1402 56.5379 21.7929 56.21 21.7929 55.5541C21.7929 54.8981 22.1402 54.5702 22.8347 54.5702H38.3451C39.0396 54.5702 39.3868 54.8981 39.3868 55.5541C39.3868 56.21 39.0396 56.5379 38.3451 56.5379Z" fill="white"/>
</svg>
