<svg width="61" height="62" viewBox="0 0 61 62" fill="none" xmlns="http://www.w3.org/2000/svg">
<path d="M31.5159 8.26046C31.5159 8.26046 31.9982 7.77817 32.9627 6.81359C33.9273 5.84901 35.76 5.36672 38.4609 5.36672C41.1617 5.36672 43.4767 6.3313 45.4058 8.26046C47.335 10.1896 48.2996 12.5046 48.2996 15.2054C48.2996 17.9063 47.335 20.2212 45.4058 22.1504C43.4767 24.0796 41.1617 25.0441 38.4609 25.0441C35.76 25.0441 33.445 24.0796 31.5159 22.1504C29.5867 20.2212 28.6221 17.9063 28.6221 15.2054C28.6221 12.5046 29.5867 10.1896 31.5159 8.26046ZM38.4609 23.0764C40.6215 23.0764 42.4735 22.3047 44.0168 20.7614C45.5602 19.2181 46.3318 17.3661 46.3318 15.2054C46.3318 13.8164 45.9846 12.5046 45.2901 11.2699C44.5956 10.0353 43.6503 9.07071 42.4542 8.37621C41.2581 7.68171 39.927 7.33447 38.4609 7.33447C36.3002 7.33447 34.4482 8.10613 32.9049 9.64946C31.3615 11.1928 30.5899 13.0448 30.5899 15.2054C30.5899 16.6716 30.9371 18.0027 31.6316 19.1988C32.3261 20.3949 33.2907 21.3402 34.5254 22.0347C35.76 22.7292 37.0719 23.0764 38.4609 23.0764ZM59.8745 31.2946C60.3375 31.7576 60.3375 32.2206 59.8745 32.6836L56.865 35.6931C56.402 36.1561 55.939 36.1561 55.476 35.6931L46.4476 26.5489C44.2097 28.015 41.7597 28.8253 39.0975 28.9796C36.4352 29.134 33.9466 28.5552 31.6316 27.2434C28.3135 25.3914 26.1335 22.6327 25.0918 18.9673C24.05 15.3019 24.4745 11.7908 26.365 8.43409C28.2556 5.07735 31.0336 2.87811 34.699 1.83636C38.3644 0.794617 41.8562 1.19974 45.1743 3.05173C48.4925 4.90372 50.6724 7.68171 51.7142 11.3857C52.7559 15.0897 52.3508 18.6007 50.4988 21.9189L59.8745 31.2946ZM32.4998 25.4493C32.4998 25.4493 32.9531 25.7097 33.8598 26.2306C34.7665 26.7514 36.3002 27.0119 38.4609 27.0119C40.6215 27.0119 42.6085 26.491 44.422 25.4493C46.2354 24.4075 47.6629 22.9799 48.7047 21.1665C49.7464 19.3531 50.2673 17.3661 50.2673 15.2054C50.2673 13.0448 49.7464 11.0577 48.7047 9.24433C47.6629 7.43092 46.2354 6.00335 44.422 4.9616C42.6085 3.91985 40.6215 3.39898 38.4609 3.39898C35.2199 3.39898 32.4419 4.55648 30.1269 6.87147C27.8119 9.18646 26.6544 11.9644 26.6544 15.2054C26.6544 17.3661 27.1753 19.3531 28.217 21.1665C29.2588 22.9799 30.6863 24.4075 32.4998 25.4493ZM56.1705 33.4939L57.791 31.9891L49.4571 23.6551C48.9941 24.1953 48.4925 24.7355 47.9523 25.2756L56.1705 33.4939ZM45.4058 28.9796L47.2578 29.5584C46.4862 32.4907 45.2901 35.2301 43.6696 37.7766L43.3223 38.2396L39.0396 56.991C38.6538 58.9973 37.4191 60.1548 35.3356 60.4635C34.101 60.695 32.9627 60.4442 31.921 59.7111C30.8793 58.978 30.2812 57.9942 30.1269 56.7595L27.1174 39.0498C26.9631 37.8152 26.2686 37.1207 25.0339 36.9663C24.4166 36.812 23.8185 36.9471 23.2398 37.3715C22.661 37.7959 22.3331 38.3553 22.2559 39.0498L19.2464 56.7595C18.9378 58.7658 17.7803 60.0005 15.7739 60.4635C14.5393 60.7722 13.3818 60.5792 12.3015 59.8847C11.2211 59.1903 10.5266 58.2257 10.218 56.991L6.05099 38.2396L5.70374 37.7766C2.53992 32.7608 0.958008 27.3205 0.958008 21.4559C0.958008 19.5267 1.34384 17.6748 2.1155 15.8999C3.65883 12.2731 6.2439 9.74591 9.87072 8.31834C13.4975 6.89076 17.0858 6.94863 20.6354 8.49196C21.5614 8.87779 22.526 9.10929 23.5292 9.18646L23.2977 11.1542C22.063 11.077 20.9055 10.7684 19.8252 10.2282C18.359 9.61087 16.7771 9.30221 15.0794 9.30221C11.7613 9.30221 8.92543 10.479 6.57186 12.8326C4.21829 15.1861 3.0415 18.0606 3.0415 21.4559C2.96433 26.9347 4.43049 32.0277 7.43998 36.7348L7.78723 37.4293C7.8644 37.5065 7.90298 37.5837 7.90298 37.6608L12.1857 56.528C12.4172 57.6855 13.1117 58.38 14.2692 58.6115C14.9637 58.6887 15.6196 58.515 16.2369 58.0906C16.8543 57.6662 17.2015 57.1068 17.2787 56.4123L20.2882 38.7026C20.4425 37.7766 20.8476 36.9663 21.5035 36.2718C22.1595 35.5773 22.989 35.1529 23.9922 34.9986C25.1497 34.7671 26.23 35.0179 27.2332 35.751C28.2363 36.4841 28.8536 37.4679 29.0851 38.7026L32.0946 56.4123C32.249 57.5698 32.9049 58.2643 34.0624 58.4958C34.371 58.5729 34.699 58.5922 35.0462 58.5536C35.3935 58.515 35.7214 58.3993 36.0301 58.2064C36.3388 58.0135 36.5896 57.782 36.7825 57.5119C36.9754 57.2418 37.1104 56.9138 37.1876 56.528L41.4703 37.6608C41.4703 37.5837 41.5089 37.5065 41.5861 37.4293L41.9333 36.7348C43.4767 34.3427 44.6342 31.7576 45.4058 28.9796ZM11.8385 14.2794L12.07 15.2054C11.9156 15.2054 11.742 15.244 11.5491 15.3212C11.3562 15.3983 11.0282 15.572 10.5652 15.8421C10.1022 16.1121 9.6971 16.4594 9.34985 16.8838C9.0026 17.3082 8.67464 17.887 8.36598 18.62C8.05731 19.3531 7.90298 20.1827 7.90298 21.1087H5.93524C5.93524 18.7937 6.55257 16.9803 7.78723 15.6684C9.02189 14.3566 10.2951 13.5464 11.607 13.2377L11.8385 14.2794ZM13.8062 15.2054V13.2377H15.7739V15.2054H13.8062ZM34.7569 16.3629L33.3679 14.9739L38.8081 9.53371L40.1971 11.0384L34.7569 16.3629ZM37.1876 20.8772L35.7986 19.4882L42.7436 12.5432L44.1326 13.9322L37.1876 20.8772Z" fill="white"/>
</svg>
