<svg width="61" height="62" viewBox="0 0 61 62" fill="none" xmlns="http://www.w3.org/2000/svg">
<path d="M45.0586 24.9381L60.2218 31.9988V38.7123C60.2218 42.8793 59.18 46.7955 57.0965 50.4609C55.013 54.1263 52.1965 57.0007 48.6468 59.0842L45.0586 61.2834L41.3546 59.0842C38.4223 57.3865 35.9915 55.1294 34.0624 52.3129C32.1332 49.4963 30.86 46.4289 30.2426 43.1108H0.958008L4.54624 30.6098C4.70058 30.0697 4.95137 29.5874 5.29861 29.163C5.64586 28.7385 6.07028 28.4106 6.57186 28.1791C7.07344 27.9476 7.59431 27.8318 8.13448 27.8318H9.17622C8.79039 27.2917 8.36598 26.8287 7.90298 26.4428C5.35649 23.8964 4.08325 20.8097 4.08325 17.1829V16.0254C4.08325 13.7876 4.8742 11.8777 6.45611 10.2958C8.03802 8.71387 9.94789 7.92292 12.1857 7.92292C13.729 7.92292 15.1566 8.34733 16.4684 9.19616C17.2401 9.58199 17.896 9.77491 18.4362 9.77491C18.9764 9.77491 19.5937 9.58199 20.2882 9.19616C21.6 8.34733 23.0276 7.92292 24.5709 7.92292C26.8087 7.92292 28.7186 8.71387 30.3005 10.2958C31.8824 11.8777 32.6734 13.7876 32.6734 16.0254V17.1829C32.6734 20.8097 31.4001 23.8964 28.8536 26.4428C28.4678 26.8287 28.0434 27.2917 27.5804 27.8318H28.6221C29.471 27.8318 30.2233 28.1019 30.8793 28.6421C31.5352 29.1822 31.9789 29.8382 32.2104 30.6098L32.3261 30.8413L45.0586 24.9381ZM6.05099 17.1829C6.05099 20.2695 7.13132 22.8932 9.29197 25.0538C10.8353 26.5972 11.9156 28.4106 12.533 30.4941L14.1535 35.9343C14.3078 36.243 14.5393 36.3973 14.848 36.3973C15.3109 36.3973 15.5424 36.1658 15.5424 35.7028V25.9798C15.5424 25.2082 15.8125 24.533 16.3527 23.9542C16.8929 23.3755 17.5681 23.0861 18.3783 23.0861C19.1886 23.0861 19.8638 23.3755 20.4039 23.9542C20.9441 24.533 21.2142 25.2082 21.2142 25.9798V35.7028C21.2142 36.1658 21.4457 36.3973 21.9087 36.3973C22.2945 36.3973 22.526 36.243 22.6032 35.9343L24.2237 30.4941C24.841 28.4106 25.9213 26.5972 27.4646 25.0538C29.6253 22.8932 30.7056 20.2695 30.7056 17.1829V16.0254C30.7056 14.3277 30.1076 12.8616 28.9115 11.6269C27.7154 10.3922 26.2686 9.77491 24.5709 9.77491C23.4134 9.77491 22.2945 10.1222 21.2142 10.8167C20.211 11.434 19.2657 11.7427 18.3783 11.7427C17.4909 11.7427 16.5456 11.434 15.5424 10.8167C14.4621 10.1222 13.3432 9.77491 12.1857 9.77491C11.1054 9.77491 10.0829 10.0643 9.11835 10.643C8.15377 11.2218 7.4014 11.9742 6.86123 12.9001C6.32107 13.8261 6.05099 14.8679 6.05099 16.0254V17.1829ZM29.7796 31.9988L30.5899 31.6516L30.4741 31.1886C30.1655 30.2626 29.5481 29.7996 28.6221 29.7996H26.5387C26.3072 30.1854 26.1528 30.6098 26.0757 31.0728L24.4552 36.5131C24.0693 37.7477 23.2205 38.365 21.9087 38.365C21.2142 38.365 20.6161 38.1143 20.1146 37.6127C19.613 37.1111 19.3622 36.4745 19.3622 35.7028V25.9798C19.3622 25.3625 19.0342 25.0538 18.3783 25.0538C17.7224 25.0538 17.3944 25.3625 17.3944 25.9798V35.7028C17.3944 36.4745 17.1437 37.1111 16.6421 37.6127C16.1405 38.1143 15.5424 38.365 14.848 38.365C13.5361 38.365 12.7259 37.7477 12.4172 36.5131L10.7967 31.0728C10.6424 30.6098 10.4495 30.1854 10.218 29.7996H8.13448C7.20848 29.7996 6.62973 30.2626 6.39824 31.1886L3.5045 41.143H29.8954C29.8182 40.2942 29.7796 39.484 29.7796 38.7123V31.9988ZM58.3698 38.7123V33.2721L45.0586 27.0216L31.7474 33.2721V38.7123C31.7474 42.5706 32.6927 46.1781 34.5832 49.5349C36.4738 52.8916 39.0396 55.5346 42.2806 57.4637L45.0586 59.0842L47.7208 57.4637C50.9618 55.5346 53.5469 52.8916 55.476 49.5349C57.4052 46.1781 58.3698 42.5706 58.3698 38.7123ZM45.0586 29.1051L56.402 34.4296V38.7123C56.402 42.1848 55.5339 45.4643 53.7977 48.551C52.0614 51.6377 49.6886 54.0684 46.6791 55.8432L45.0586 56.885L43.3223 55.8432C40.3128 54.0684 37.94 51.6377 36.2037 48.551C34.4675 45.4643 33.5994 42.1848 33.5994 38.7123V34.4296L45.0586 29.1051ZM54.55 38.7123V35.7028L45.0586 31.1886L35.4514 35.7028V38.7123C35.4514 41.8761 36.2423 44.847 37.8242 47.625C39.4061 50.403 41.5475 52.6022 44.2483 54.2227L45.0586 54.6857L45.7531 54.2227C48.4539 52.6022 50.5953 50.403 52.1772 47.625C53.7591 44.847 54.55 41.8761 54.55 38.7123ZM49.1098 37.6705L50.3831 39.0595L42.1648 47.2778L39.6183 44.7313L40.8916 43.3423L42.1648 44.6155L49.1098 37.6705ZM22.6032 12.2057L23.6449 13.8261C21.8701 14.9836 20.1146 15.5624 18.3783 15.5624C16.6421 15.5624 14.8865 14.9836 13.1117 13.8261L14.1535 12.2057C17.0086 14.0576 19.8252 14.0576 22.6032 12.2057ZM34.5254 4.10318V2.25119H36.4931V4.10318H34.5254ZM32.6734 6.07093V4.10318H34.5254V6.07093H32.6734ZM34.5254 7.92292V6.07093H36.4931V7.92292H34.5254ZM36.4931 6.07093V4.10318H38.3451V6.07093H36.4931ZM3.15725 46.9305V44.9628H5.12499V46.9305H3.15725ZM1.30526 48.7825V46.9305H3.15725V48.7825H1.30526ZM3.15725 50.7502V48.7825H5.12499V50.7502H3.15725ZM5.12499 48.7825V46.9305H6.97698V48.7825H5.12499Z" fill="white"/>
</svg>
