<svg width="61" height="62" viewBox="0 0 61 62" fill="none" xmlns="http://www.w3.org/2000/svg">
<path d="M48.2997 46.4578C48.2226 45.9176 48.4734 45.6282 49.0521 45.5897C49.6308 45.5511 49.9588 45.8019 50.036 46.342C50.2675 49.2743 49.9974 51.7437 49.2257 53.75C48.8399 54.9847 48.1068 56.2772 47.0265 57.6276C45.9462 58.978 44.7501 59.8847 43.4382 60.3477C42.1264 60.8107 40.8532 60.6564 39.6185 59.8847C38.7697 59.4217 38.1331 58.6693 37.7086 57.6276C37.2842 56.5859 37.072 55.5634 37.072 54.5602C37.072 53.5571 37.1106 52.5539 37.1878 51.5508C37.1878 50.7791 37.1878 50.2775 37.1878 50.046C37.1878 48.2712 36.9563 46.6893 36.4933 45.3003C36.0303 43.8341 35.2393 42.7538 34.1204 42.0593C33.0015 41.3648 31.8247 41.0175 30.59 41.0175C29.3554 41.0175 28.1786 41.3648 27.0597 42.0593C25.9408 42.7538 25.1498 43.8341 24.6868 45.3003C24.2238 46.6893 23.9923 48.2712 23.9923 50.046C23.9923 50.2775 23.9923 50.7791 23.9923 51.5508C24.0695 52.5539 24.1081 53.5571 24.1081 54.5602C24.1081 55.5634 23.8959 56.5859 23.4715 57.6276C23.047 58.6693 22.4104 59.4217 21.5616 59.8847C20.8671 60.3477 20.0954 60.5792 19.2466 60.5792C18.7836 60.5792 18.282 60.5021 17.7419 60.3477C16.43 59.8847 15.2339 58.978 14.1536 57.6276C13.0733 56.2772 12.3402 54.9847 11.9544 53.75C11.0284 51.2807 10.8355 48.0397 11.3756 44.027C11.6071 42.5609 11.8386 40.4002 12.0701 37.5451C12.1473 36.7734 12.1859 36.1561 12.1859 35.6931C12.263 35.2301 12.1473 34.7671 11.8386 34.3041C6.20548 27.2819 4.16058 20.5299 5.7039 14.0479C6.01257 12.7361 6.3984 11.54 6.8614 10.4597C7.94173 7.75885 9.52364 5.59819 11.6071 3.9777C13.845 2.20287 16.3914 1.31546 19.2466 1.31546C22.1018 1.31546 24.6482 2.12571 26.8861 3.7462C27.9664 4.59503 29.2011 5.01945 30.59 5.01945C31.979 5.01945 33.2137 4.59503 34.294 3.7462C36.5319 2.12571 39.0784 1.31546 41.9335 1.31546C44.7887 1.31546 47.3351 2.20287 49.573 3.9777C51.6565 5.59819 53.2384 7.75885 54.3187 10.4597C54.7817 11.54 55.1675 12.7361 55.4762 14.0479C57.0195 20.5299 54.9746 27.2819 49.3415 34.3041C49.0328 34.7671 48.9171 35.2301 48.9942 35.6931C49.3029 39.5514 49.4958 41.7892 49.573 42.4065C49.6501 42.9467 49.3993 43.2554 48.8206 43.3325C48.2419 43.4097 47.9139 43.1396 47.8367 42.5223C47.6824 41.442 47.5281 39.8215 47.3737 37.6608C47.2966 36.8891 47.258 36.3104 47.258 35.9246C47.1808 34.9214 47.4509 34.034 48.0682 33.2623C52.0037 28.2465 54.0486 23.4622 54.203 18.9094C53.5856 18.9094 53.084 18.948 52.6982 19.0251C51.0777 19.3338 49.8816 20.2212 49.11 21.6874C48.8013 22.2275 48.4926 23.1535 48.184 24.4654C47.6438 26.4717 47.0265 27.9379 46.332 28.8638C45.406 30.0213 44.3257 30.5615 43.091 30.4843C41.4705 30.4843 40.0043 29.5969 38.6925 27.8221C38.6154 27.6678 38.461 27.4363 38.2295 27.1276C37.3807 25.8929 36.6476 25.1984 36.0303 25.0441C35.3358 24.8898 34.6799 25.0055 34.0625 25.3914C33.5224 25.7 33.1172 25.6036 32.8472 25.102C32.5771 24.6004 32.6735 24.1953 33.1365 23.8866C34.1397 23.3465 35.22 23.1535 36.3775 23.3079C37.072 23.4622 37.7279 23.848 38.3453 24.4654C38.4996 24.6197 39.0784 25.3914 40.0815 26.7804C41.0847 28.0922 42.0878 28.7481 43.091 28.7481C43.7855 28.8253 44.4028 28.478 44.943 27.7064C45.4832 27.089 46.0233 25.8544 46.5635 24.0024C46.8722 22.6134 47.2194 21.6102 47.6052 20.9929C48.6084 18.9094 50.2289 17.6747 52.4667 17.2889C52.9297 17.2117 53.5085 17.1731 54.203 17.1731C54.203 17.0188 54.203 16.9031 54.203 16.8259C54.1258 15.9771 54.01 15.1668 53.8557 14.3952C53.547 13.2377 53.1805 12.138 52.7561 11.0963C52.3317 10.0546 51.8108 9.07068 51.1935 8.14468C50.4218 7.06435 49.5344 6.09977 48.5312 5.25095C46.6021 3.78478 44.4028 3.0517 41.9335 3.0517C39.4642 3.0517 37.2649 3.7462 35.3358 5.1352C34.487 5.75253 33.5995 6.17694 32.6735 6.40844C31.3617 6.79427 30.0885 6.83286 28.8538 6.52419C27.7735 6.29269 26.7703 5.82969 25.8443 5.1352C24.9183 4.51786 23.9537 4.01628 22.9506 3.63045C20.5584 2.85879 18.2049 2.85879 15.8899 3.63045C15.8127 3.63045 15.7355 3.63045 15.6584 3.63045C14.1922 4.17062 12.919 4.98086 11.8386 6.06119C11.6843 6.13836 11.53 6.25411 11.3756 6.40844C11.2213 6.56277 11.067 6.75569 10.9126 6.98719C10.8355 7.06435 10.7969 7.10294 10.7969 7.10294C11.2599 8.02893 11.6457 9.0321 11.9544 10.1124C12.3402 11.5786 12.6875 13.8936 12.9961 17.0574C12.9961 17.1346 13.0347 17.4239 13.1119 17.9255C13.189 18.4271 13.2276 18.7551 13.2276 18.9094C13.2276 19.0637 13.2662 19.3724 13.3434 19.8354C13.4205 20.2984 13.4977 20.6263 13.5749 20.8193C13.652 21.0122 13.7678 21.2823 13.9221 21.6295C14.0765 21.9767 14.2501 22.2661 14.443 22.4976C14.6359 22.7291 14.8481 22.922 15.0796 23.0764C15.6198 23.4622 16.2371 23.6551 16.9316 23.6551C17.7033 23.6551 18.5521 23.2693 19.4781 22.4976C21.0214 21.1858 22.2947 20.7228 23.2978 21.1086C24.6868 21.6488 25.5742 23.6937 25.9601 27.2434C26.1144 29.0182 26.4038 30.2336 26.8282 30.8895C27.2526 31.5454 27.7349 31.8926 28.2751 31.9312C28.8152 31.9698 29.2203 31.7383 29.4904 31.2367C29.7605 30.7351 30.0113 29.867 30.2428 28.6323C30.32 28.1693 30.3971 27.8607 30.4743 27.7064C30.6286 27.089 30.9759 26.8575 31.516 27.0119C32.0562 27.1662 32.2877 27.5134 32.2105 28.0536C32.1334 28.2079 32.0562 28.5166 31.979 28.9796C31.6704 30.3686 31.3617 31.3718 31.053 31.9891C30.4357 33.1466 29.4711 33.6867 28.1593 33.6096C27.0018 33.5324 26.0758 32.9151 25.3813 31.7576C24.9955 31.1403 24.6868 30.2143 24.4553 28.9796C24.3782 28.6709 24.301 28.1693 24.2238 27.4749C23.9152 24.6197 23.375 23.0378 22.6033 22.7291C22.2175 22.5748 21.5616 22.922 20.6356 23.7709C20.1726 24.1567 19.8253 24.4268 19.5938 24.5811C18.745 25.1213 17.7997 25.3914 16.758 25.3914C15.7162 25.3914 14.8095 25.0827 14.0379 24.4654C12.6489 23.4622 11.7615 21.4173 11.3756 18.3306C11.3756 18.0991 11.337 17.7133 11.2599 17.1731C10.9512 14.1637 10.604 11.9644 10.2181 10.5754C10.0638 9.95809 9.87088 9.34076 9.63939 8.72343C9.17639 9.49509 8.75197 10.2668 8.36614 11.0384C7.98031 12.1188 7.63306 13.2377 7.3244 14.3952C6.01257 20.4141 7.94173 26.7032 13.1119 33.2623C13.7292 34.034 13.9993 34.9214 13.9221 35.9246C13.9221 36.3104 13.8835 36.8891 13.8064 37.6608C13.5749 40.5931 13.3434 42.7924 13.1119 44.2585C12.5717 47.9625 12.726 50.9334 13.5749 53.1712C13.9607 54.2516 14.5973 55.3512 15.4847 56.4701C16.3722 57.589 17.3174 58.3028 18.3206 58.6115C19.1694 58.9201 19.9411 58.8816 20.6356 58.4957C21.9474 57.7241 22.5262 55.4091 22.3718 51.5508C22.2947 50.8563 22.2561 50.3547 22.2561 50.046C22.2561 48.1169 22.5262 46.342 23.0663 44.7215C23.6065 43.101 24.5518 41.7892 25.9022 40.786C27.2526 39.7829 28.8152 39.2813 30.59 39.2813C32.3649 39.2813 33.9275 39.7829 35.2779 40.786C36.6283 41.7892 37.5736 43.101 38.1138 44.7215C38.6539 46.342 38.924 48.1169 38.924 50.046C38.924 50.3547 38.8854 50.8563 38.8083 51.5508C38.6539 55.4091 39.2327 57.7241 40.5445 58.4957C41.239 58.8816 42.0107 58.9201 42.8595 58.6115C43.8627 58.3028 44.8079 57.589 45.6954 56.4701C46.5828 55.3512 47.2194 54.2516 47.6052 53.1712C48.2997 51.3964 48.5312 49.1586 48.2997 46.4578ZM15.9477 30.1371C15.9477 30.1371 15.803 30.1371 15.5137 30.1371C15.2243 30.1371 15.0796 29.8477 15.0796 29.269C15.0796 28.6902 15.369 28.4008 15.9477 28.4008C16.5265 28.4008 16.8159 28.6902 16.8159 29.269C16.8159 29.8477 16.5265 30.1371 15.9477 30.1371ZM21.0407 30.9473C21.0407 30.9473 20.896 30.9473 20.6067 30.9473C20.3173 30.9473 20.1726 30.658 20.1726 30.0792C20.1726 29.5005 20.462 29.2111 21.0407 29.2111C21.6195 29.2111 21.9088 29.5005 21.9088 30.0792C21.9088 30.658 21.6195 30.9473 21.0407 30.9473ZM18.4942 38.9341C18.4942 38.9341 18.3495 38.9341 18.0602 38.9341C17.7708 38.9341 17.6261 38.6447 17.6261 38.0659C17.6261 37.4872 17.9155 37.1978 18.4942 37.1978C19.073 37.1978 19.3623 37.4872 19.3623 38.0659C19.3623 38.6447 19.073 38.9341 18.4942 38.9341ZM16.758 45.879C16.758 45.879 16.6133 45.879 16.3239 45.879C16.0345 45.879 15.8899 45.5897 15.8899 45.0109C15.8899 44.4322 16.1792 44.1428 16.758 44.1428C17.3367 44.1428 17.6261 44.4322 17.6261 45.0109C17.6261 45.5897 17.3367 45.879 16.758 45.879ZM24.2817 36.9663C24.2817 36.9663 24.137 36.9663 23.8476 36.9663C23.5583 36.9663 23.4136 36.6769 23.4136 36.0982C23.4136 35.5194 23.703 35.2301 24.2817 35.2301C24.8604 35.2301 25.1498 35.5194 25.1498 36.0982C25.1498 36.6769 24.8604 36.9663 24.2817 36.9663ZM35.6252 31.7576C35.6252 31.7576 35.4805 31.7576 35.1911 31.7576C34.9017 31.7576 34.757 31.4875 34.757 30.9473C34.757 30.4072 35.0464 30.1371 35.6252 30.1371C36.2039 30.1371 36.4933 30.4072 36.4933 30.9473C36.4933 31.4875 36.2039 31.7576 35.6252 31.7576ZM43.3804 36.1561C43.3804 36.1561 43.2357 36.1561 42.9463 36.1561C42.6569 36.1561 42.5123 35.8667 42.5123 35.2879C42.5123 34.7092 42.8016 34.4198 43.3804 34.4198C43.9591 34.4198 44.2485 34.7092 44.2485 35.2879C44.2485 35.8667 43.9591 36.1561 43.3804 36.1561ZM42.5701 42.9853C42.5701 42.9853 42.4254 42.9853 42.1361 42.9853C41.8467 42.9853 41.702 42.6959 41.702 42.1172C41.702 41.5384 41.9914 41.249 42.5701 41.249C43.1489 41.249 43.4382 41.5384 43.4382 42.1172C43.4382 42.6959 43.1489 42.9853 42.5701 42.9853ZM45.1166 50.2775C45.1166 50.2775 44.9719 50.2775 44.6826 50.2775C44.3932 50.2775 44.2485 49.9881 44.2485 49.4094C44.2485 48.8306 44.5379 48.5413 45.1166 48.5413C45.6954 48.5413 45.9847 48.8306 45.9847 49.4094C45.9847 49.9881 45.6954 50.2775 45.1166 50.2775ZM35.6252 36.9663C35.6252 36.9663 35.4805 36.9663 35.1911 36.9663C34.9017 36.9663 34.757 36.6769 34.757 36.0982C34.757 35.5194 35.0464 35.2301 35.6252 35.2301C36.2039 35.2301 36.4933 35.5194 36.4933 36.0982C36.4933 36.6769 36.2039 36.9663 35.6252 36.9663ZM19.4202 52.0138C19.4202 52.0138 19.2755 52.0138 18.9862 52.0138C18.6968 52.0138 18.5521 51.7244 18.5521 51.1456C18.5521 50.5669 18.8415 50.2775 19.4202 50.2775C19.999 50.2775 20.2883 50.5669 20.2883 51.1456C20.2883 51.7244 19.999 52.0138 19.4202 52.0138Z" fill="white"/>
</svg>
