<svg width="61" height="62" viewBox="0 0 61 62" fill="none" xmlns="http://www.w3.org/2000/svg">
<path d="M15.8897 18.9276C15.8897 18.3103 16.2177 18.0016 16.8736 18.0016C17.5295 18.0016 17.8574 18.3103 17.8574 18.9276V19.5064C17.8574 20.3552 17.5681 21.069 16.9893 21.6477C16.4106 22.2265 15.6968 22.5158 14.848 22.5158C13.9991 22.5158 13.3046 22.2072 12.7645 21.5899C12.1471 21.0497 11.8385 20.3552 11.8385 19.5064V18.9276C11.8385 18.3103 12.1471 18.0016 12.7645 18.0016C13.3818 18.0016 13.6905 18.3103 13.6905 18.9276V19.5064C13.6905 20.278 14.0763 20.6639 14.848 20.6639C15.6196 20.5867 15.9669 20.2009 15.8897 19.5064V18.9276ZM26.3072 18.9276C26.3072 18.3103 26.6351 18.0016 27.291 18.0016C27.9469 18.0016 28.2749 18.3103 28.2749 18.9276V19.5064C28.2749 20.3552 27.9662 21.069 27.3489 21.6477C26.7316 22.2265 26.0178 22.5158 25.2075 22.5158C24.3973 22.5158 23.7028 22.2265 23.124 21.6477C22.5453 21.069 22.2559 20.3552 22.2559 19.5064V18.9276C22.2559 18.3103 22.5646 18.0016 23.1819 18.0016C23.7992 18.0016 24.1079 18.3103 24.1079 18.9276V19.5064C24.1079 20.278 24.4745 20.6639 25.2075 20.6639C25.9406 20.6639 26.3072 20.278 26.3072 19.5064V18.9276ZM46.3318 32.8176C50.1901 32.8176 53.4697 34.168 56.1705 36.8688C58.8714 39.5696 60.2218 42.8299 60.2218 46.6496C60.2218 50.4694 58.8714 53.7296 56.1705 56.4305C53.4697 59.1313 50.2287 60.4817 46.4476 60.4817C43.9011 60.4817 41.5475 59.8644 39.3868 58.6297C39.3097 58.6297 39.1939 58.6683 39.0396 58.7454H1.884C1.72967 58.6683 1.57534 58.5911 1.42101 58.5139C1.26667 58.4368 1.15092 58.321 1.07376 58.1667C0.996591 58.0124 0.958008 57.858 0.958008 57.7037V46.1287C0.958008 43.5823 1.86471 41.4023 3.67812 39.5889C5.49153 37.7755 7.67148 36.8688 10.218 36.8688H15.1952V35.364C12.8802 34.438 10.9703 32.9719 9.4656 30.9656C7.96085 28.9592 7.13132 26.6828 6.97698 24.1363C6.28249 23.982 5.66515 23.6733 5.12499 23.2103C4.50766 22.5158 4.19899 21.7056 4.19899 20.7796C4.19899 19.8536 4.54624 19.0819 5.24074 18.4646C5.70374 17.9244 6.28249 17.5772 6.97698 17.4229V11.2881C6.97698 11.1338 7.01557 10.9023 7.09273 10.5936C7.4014 8.89598 8.15377 7.42982 9.34985 6.19516C10.5459 4.9605 12.1085 4.30459 14.0377 4.22742C14.2692 3.91875 14.5007 3.64867 14.7322 3.41718C15.7354 2.41401 16.9314 1.91243 18.3204 1.91243H26.8859C28.1206 1.91243 29.2973 2.14393 30.4163 2.60693C31.5352 3.06993 32.519 3.72584 33.3679 4.57467C34.2167 5.4235 34.8726 6.40737 35.3356 7.52628C35.7986 8.6452 36.0301 9.82198 36.0301 11.0566C36.0301 11.7511 35.7214 12.0984 35.1041 12.0984H33.1364V17.5386C33.7537 17.6929 34.2939 17.963 34.7569 18.3489C35.3742 19.0434 35.6829 19.8536 35.6829 20.7796C35.6829 21.5513 35.4514 22.2458 34.9884 22.8631C34.5254 23.4804 33.908 23.8663 33.1364 24.0206C32.982 26.4899 32.2104 28.7277 30.8214 30.7341C29.4324 32.7404 27.619 34.2451 25.3812 35.2483V36.8688H30.3584C32.2104 36.8688 33.8695 37.3318 35.3356 38.2578C38.1136 34.631 41.779 32.8176 46.3318 32.8176ZM6.97698 22.1686V19.3906C6.82265 19.4678 6.66832 19.5835 6.51398 19.7379C6.20532 20.0465 6.05099 20.3938 6.05099 20.7796C6.05099 21.4741 6.35965 21.9371 6.97698 22.1686ZM33.3679 19.7379C33.3679 19.7379 33.3293 19.7186 33.2521 19.68C33.175 19.6414 33.1364 19.5835 33.1364 19.5064V22.0528C33.5994 21.667 33.8309 21.2426 33.8309 20.7796C33.8309 20.3938 33.6765 20.0465 33.3679 19.7379ZM15.5424 5.61642C15.3109 6.00225 15.1952 6.46524 15.1952 7.00541C15.1952 7.85424 15.4846 8.56803 16.0633 9.14677C16.6421 9.72552 17.3559 10.0535 18.2047 10.1306C18.2047 10.1306 18.224 10.1306 18.2626 10.1306C18.3011 10.1306 18.3204 10.1306 18.3204 10.1306H34.0624C33.8309 8.35582 33.0399 6.85108 31.6895 5.61642C30.3391 4.38175 28.7379 3.76442 26.8859 3.76442H18.3204C17.4716 3.76442 16.7385 4.07309 16.1212 4.69042C15.8125 4.99908 15.6196 5.30775 15.5424 5.61642ZM8.82898 11.2881V15.1079C11.6841 15.1079 14.2306 13.9504 16.4684 11.6354C15.3881 11.1724 14.5586 10.4393 13.9798 9.43615C13.4011 8.43299 13.1889 7.35266 13.3432 6.19516C12.0314 6.42666 10.9896 7.04399 10.218 8.04716C9.52347 8.89598 9.06047 9.86057 8.82898 10.9409C8.82898 11.0952 8.82898 11.211 8.82898 11.2881ZM12.1857 31.1971C13.4204 32.4317 14.848 33.3191 16.4684 33.8593C19.0149 34.7081 21.5228 34.6695 23.9922 33.7435C26.1528 32.8947 27.9084 31.5057 29.2588 29.5766C30.6092 27.6474 31.2844 25.5253 31.2844 23.2103V12.0984H18.5519C15.9283 15.3394 12.6873 16.9599 8.82898 16.9599V23.2103C8.82898 26.297 9.94789 28.9592 12.1857 31.1971ZM19.1307 56.7777V42.4248L15.7739 38.7208H11.7227V41.2673C12.803 41.4988 13.6905 42.0582 14.385 42.9456C15.0794 43.833 15.4267 44.8169 15.4267 45.8972V51.106C15.4267 51.7233 15.118 52.032 14.5007 52.032H12.6487C12.0314 52.032 11.7227 51.7233 11.7227 51.106C11.7227 50.4886 12.0314 50.18 12.6487 50.18H13.5747V45.8972C13.5747 45.1256 13.3046 44.4697 12.7645 43.9295C12.2243 43.3893 11.5684 43.1193 10.7967 43.1193H10.681C9.98647 43.1193 9.36914 43.3893 8.82898 43.9295C8.28881 44.4697 8.01873 45.1256 8.01873 45.8972V50.18H8.48173C9.17622 50.18 9.52347 50.4886 9.52347 51.106C9.52347 51.7233 9.17622 52.032 8.48173 52.032H7.09273C6.4754 52.032 6.16674 51.7233 6.16674 51.106V45.8972C6.16674 44.5854 6.62973 43.5051 7.55573 42.6563C8.17306 41.9618 8.90614 41.5374 9.75497 41.383V38.8365C8.82898 38.8365 7.94156 39.0487 7.09273 39.4732C6.2439 39.8976 5.51082 40.4377 4.89349 41.0936C4.27616 41.7496 3.77458 42.5212 3.38875 43.4086C3.00292 44.296 2.81 45.2028 2.81 46.1287V56.7777H19.1307ZM17.1629 37.4475L20.1724 40.6885L23.5292 37.4475V35.827C22.3717 36.1357 21.2142 36.29 20.0567 36.29C19.0535 36.29 18.0889 36.1743 17.1629 35.9428V37.4475ZM20.9827 56.7777H36.9561C34.6411 54.617 33.2328 51.9548 32.7313 48.791C32.2297 45.6272 32.7505 42.6563 34.2939 39.8783C33.1364 39.1066 31.8245 38.7208 30.3584 38.7208H28.5064V43.698C29.1237 43.9295 29.7025 44.2768 30.2426 44.7398C30.9371 45.4343 31.2844 46.3024 31.2844 47.3441C31.2844 48.3859 30.9178 49.2926 30.1848 50.0642C29.4517 50.8359 28.5643 51.2217 27.5225 51.2217C26.4808 51.2217 25.5741 50.8552 24.8024 50.1221C24.0307 49.389 23.6449 48.4823 23.6449 47.402C23.6449 46.5532 23.915 45.7815 24.4552 45.087C24.9953 44.3925 25.6898 43.9295 26.5387 43.698V38.7208H24.8024L20.9827 42.4248V56.7777ZM28.8536 46.013C28.4678 45.7043 28.0048 45.55 27.4646 45.55C26.9245 45.55 26.4615 45.7043 26.0757 46.013C25.2268 46.939 25.2461 47.865 26.1335 48.791C27.0209 49.717 27.9276 49.717 28.8536 48.791C29.7025 47.865 29.7025 46.939 28.8536 46.013ZM46.3318 58.6297C48.4153 58.6297 50.3445 58.1474 52.1193 57.1828C53.8941 56.2182 55.3217 54.8871 56.402 53.1895C58.1769 50.4115 58.717 47.4213 58.0225 44.2189C57.328 41.0165 55.6111 38.5086 52.8717 36.6952C50.1323 34.8818 47.1421 34.3223 43.9011 35.0168C40.6601 35.7113 38.1522 37.409 36.3774 40.1098C35.0655 42.1161 34.4096 44.3153 34.4096 46.7075C34.4096 48.8682 34.9498 50.8552 36.0301 52.6686C37.1104 54.482 38.5573 55.9289 40.3707 57.0092C42.1841 58.0895 44.1712 58.6297 46.3318 58.6297ZM50.9618 39.068C51.8106 39.1452 52.563 39.4346 53.2189 39.9361C53.8748 40.4377 54.3764 41.0744 54.7237 41.846C55.0709 42.6177 55.206 43.4279 55.1288 44.2768C54.743 47.9807 53.3925 51.6847 51.0776 55.3887C50.8461 55.8517 50.4602 56.0832 49.9201 56.0832H49.8043C49.2641 56.006 48.8783 55.736 48.6468 55.273L46.7948 51.8005L45.0586 55.1572C44.8271 55.6974 44.422 55.9867 43.8432 56.0253C43.2645 56.0639 42.8208 55.8131 42.5121 55.273C40.2743 51.6461 38.9624 47.9807 38.5766 44.2768C38.5766 43.9681 38.5766 43.6594 38.5766 43.3508C38.6538 42.1161 39.1939 41.0744 40.1971 40.2255C41.2003 39.3767 42.3578 38.9909 43.6696 39.068C44.1326 39.068 44.7113 39.531 45.4058 40.457C46.6405 42.0775 47.9523 42.8106 49.3413 42.6563C49.9586 42.5791 50.3059 42.8492 50.3831 43.4665C50.4602 44.0838 50.1901 44.4311 49.5728 44.5083C47.4122 44.8169 45.5216 43.8523 43.9011 41.6145C43.6696 41.3059 43.4767 41.0744 43.3223 40.92C43.2452 40.92 43.1294 40.92 42.9751 40.92C42.2034 40.9972 41.5668 41.3444 41.0652 41.9618C40.5636 42.5791 40.3514 43.2736 40.4286 44.0453C40.7373 47.2091 41.8562 50.4115 43.7853 53.6525L45.4058 50.18C45.7145 49.6398 46.1582 49.3697 46.7369 49.3697C47.3157 49.3697 47.7208 49.6398 47.9523 50.18L49.9201 53.6525C51.772 50.4115 52.891 47.2091 53.2768 44.0453C53.2768 43.8909 53.2768 43.7366 53.2768 43.5823C53.1996 42.8106 52.8717 42.1547 52.2929 41.6145C51.7142 41.0744 51.039 40.8429 50.2673 40.92C49.4956 40.9972 48.8397 41.1129 48.2996 41.2673C47.6822 41.4216 47.2964 41.1901 47.1421 40.5728C46.9877 39.9554 47.2192 39.5696 47.8366 39.4153C48.5311 39.2609 49.2641 39.1452 50.0358 39.068C50.3445 39.068 50.6531 39.068 50.9618 39.068Z" fill="white"/>
</svg>
