<svg width="61" height="62" viewBox="0 0 61 62" fill="none" xmlns="http://www.w3.org/2000/svg">
<path d="M18.5519 27.7459C18.6291 26.8199 18.3976 25.9711 17.8574 25.1994C17.0858 24.1191 16.6999 22.923 16.6999 21.6112C16.6999 20.2994 17.0858 19.1033 17.8574 18.023C18.3976 17.2513 18.6291 16.4025 18.5519 15.4765C18.4748 14.2418 18.7641 13.065 19.4201 11.9461C20.076 10.8272 20.9827 9.95908 22.1402 9.34175H22.2559C23.1047 8.95592 23.7607 8.33859 24.2237 7.48976C24.7638 6.33226 25.6127 5.44485 26.7702 4.82752C27.9276 4.21019 29.1623 3.94011 30.4741 4.01727C31.4773 4.01727 32.4033 3.74719 33.2521 3.20703C35.6443 1.74086 38.075 1.74086 40.5443 3.20703C41.316 3.74719 42.2034 4.01727 43.2066 4.01727C44.1326 3.94011 45.0007 4.03656 45.8109 4.30664C46.6212 4.57673 47.3543 4.98185 48.0102 5.52201C48.6661 6.06218 49.187 6.71809 49.5728 7.48976C50.0358 8.33859 50.6917 8.95592 51.5406 9.34175C52.698 9.95908 53.6047 10.8272 54.2607 11.9461C54.9166 13.065 55.206 14.2418 55.1288 15.4765C55.1288 16.4025 55.3989 17.2513 55.939 18.023C56.6335 19.1033 56.9808 20.2994 56.9808 21.6112C56.9808 22.923 56.6335 24.1191 55.939 25.1994C55.3989 25.9711 55.1288 26.8199 55.1288 27.7459C55.206 29.0578 54.9166 30.2731 54.2607 31.392C53.6047 32.5109 52.698 33.3405 51.5406 33.8806C50.6917 34.2665 50.0358 34.8838 49.5728 35.7326C48.9555 36.8901 48.0681 37.7968 46.9106 38.4528C45.7531 39.1087 44.5184 39.398 43.2066 39.3209C42.2034 39.2437 41.316 39.4752 40.5443 40.0154C38.075 41.5587 35.6443 41.5587 33.2521 40.0154C32.4033 39.4752 31.4773 39.2437 30.4741 39.3209C29.1623 39.398 27.9276 39.1087 26.7702 38.4528C25.6127 37.7968 24.7638 36.8901 24.2237 35.7326C23.7607 34.8838 23.1047 34.2665 22.2559 33.8806H22.1402C20.9827 33.3405 20.076 32.5109 19.4201 31.392C18.7641 30.2731 18.4748 29.0578 18.5519 27.7459ZM19.5937 19.2962C18.5905 20.8395 18.5905 22.3829 19.5937 23.9262C20.4425 25.0837 20.8283 26.3955 20.7512 27.8617C20.674 29.7137 21.4843 31.0641 23.1819 31.9129C24.4937 32.5302 25.4583 33.4562 26.0757 34.6909L26.1914 34.8066C27.0402 36.4271 28.4292 37.1988 30.3584 37.1216C30.5127 37.1216 30.6671 37.1216 30.8214 37.1216C32.1332 37.1216 33.3293 37.4689 34.4096 38.1634C36.0301 39.1665 37.6506 39.1665 39.2711 38.1634C40.5058 37.3917 41.8562 37.0445 43.3223 37.1216C45.3287 37.1988 46.7562 36.4271 47.6051 34.8066V34.6909C48.2996 33.4562 49.2641 32.5302 50.4988 31.9129H50.6146C52.3122 31.0641 53.0839 29.7137 52.9295 27.8617C52.8524 26.3955 53.2382 25.0837 54.087 23.9262C55.1674 22.3829 55.1674 20.8395 54.087 19.2962C53.2382 18.1387 52.8524 16.8269 52.9295 15.3607C53.0839 13.5087 52.3122 12.1583 50.6146 11.3095H50.4988C49.2641 10.6922 48.2996 9.76617 47.6051 8.5315C46.7562 6.83384 45.3287 6.06218 43.3223 6.21651C41.8562 6.29368 40.5058 5.94643 39.2711 5.17477C37.6506 4.09444 36.0301 4.09444 34.4096 5.17477C33.175 5.94643 31.8245 6.29368 30.3584 6.21651C28.4292 6.06218 27.0402 6.83384 26.1914 8.5315H26.0757C25.4583 9.76617 24.4937 10.6922 23.1819 11.3095C21.4843 12.1583 20.674 13.5087 20.7512 15.3607C20.8283 16.8269 20.4425 18.1387 19.5937 19.2962ZM31.2844 32.7232C30.8986 33.3405 30.3777 33.4562 29.7218 33.0704C29.0659 32.6846 28.9694 32.183 29.4324 31.5657L42.5121 10.615C42.7436 10.2292 43.0715 10.0362 43.496 10.0362C43.9204 10.0362 44.229 10.2292 44.422 10.615C44.6149 11.0008 44.5956 11.3867 44.3641 11.7725L31.2844 32.7232ZM30.9371 21.7269C29.5481 21.7269 28.3906 21.1675 27.4646 20.0486C26.5387 18.9297 26.0757 17.6178 26.0757 16.1131C26.0757 14.6084 26.5387 13.2965 27.4646 12.1776C28.3906 11.0587 29.5481 10.4992 30.9371 10.4992C31.786 10.4992 32.5962 10.75 33.3679 11.2516C34.1395 11.7532 34.7376 12.4477 35.162 13.3351C35.5864 14.2225 35.7986 15.1678 35.7986 16.171C35.7986 17.1741 35.5864 18.1001 35.162 18.949C34.7376 19.7978 34.1395 20.473 33.3679 20.9746C32.5962 21.4762 31.786 21.7269 30.9371 21.7269ZM32.7891 13.7981C32.7891 13.7981 32.6541 13.6341 32.384 13.3062C32.1139 12.9782 31.6123 12.8142 30.8793 12.8142C30.1462 12.8142 29.5288 13.1422 29.0273 13.7981C28.5257 14.454 28.2749 15.245 28.2749 16.171C28.2749 16.5568 28.3328 16.9619 28.4485 17.3863C28.5643 17.8108 28.7379 18.1773 28.9694 18.486C29.2009 18.7946 29.4903 19.0454 29.8375 19.2383C30.1848 19.4313 30.5513 19.5277 30.9371 19.5277C31.6316 19.5277 32.249 19.1998 32.7891 18.5438C33.3293 17.8879 33.5994 17.097 33.5994 16.171C33.5994 15.245 33.3293 14.454 32.7891 13.7981ZM39.329 31.1027C39.329 31.1027 39.0878 30.8326 38.6055 30.2924C38.1232 29.7522 37.8821 28.7105 37.8821 27.1672C37.8821 25.6239 38.3644 24.312 39.329 23.2317C40.2936 22.1514 41.451 21.6112 42.8015 21.6112C44.1519 21.6112 45.3094 22.1514 46.2739 23.2317C47.2385 24.312 47.7208 25.6239 47.7208 27.1672C47.7208 27.7845 47.6437 28.3633 47.4893 28.9034C47.335 29.4436 47.1035 29.9452 46.7948 30.4082C46.4862 30.8712 46.1196 31.2763 45.6952 31.6235C45.2708 31.9708 44.8078 32.2409 44.3062 32.4338C43.8046 32.6267 43.3223 32.7232 42.8593 32.7232C41.4703 32.7232 40.2936 32.183 39.329 31.1027ZM44.7113 29.54C44.7113 29.54 44.8464 29.3761 45.1165 29.0481C45.3865 28.7201 45.5216 28.0932 45.5216 27.1672C45.5216 26.2412 45.2515 25.4502 44.7113 24.7943C44.1712 24.1384 43.5538 23.8104 42.8593 23.8104C42.3192 23.8104 41.8562 23.9648 41.4703 24.2734C41.0845 24.5821 40.7758 24.9872 40.5443 25.4888C40.3128 25.9904 40.1971 26.5498 40.1971 27.1672C40.1971 28.0932 40.4479 28.8841 40.9495 29.54C41.451 30.196 42.0684 30.5239 42.8015 30.5239C43.5345 30.5239 44.1712 30.196 44.7113 29.54ZM60.2218 45.4556C60.5304 46.0729 60.3761 46.5745 59.7588 46.9603L40.0813 59.6928C40.0813 59.77 40.0428 59.8085 39.9656 59.8085C38.0364 60.6574 35.9915 61.0818 33.8309 61.0818C32.8277 61.0818 31.8245 61.0046 30.8214 60.8503C30.8214 60.8503 30.7828 60.8503 30.7056 60.8503L17.1629 57.0306C16.1598 56.7219 15.1952 56.7991 14.2692 57.2621L11.9542 58.5353V59.4613C11.9542 60.1558 11.5684 60.503 10.7967 60.503L1.99975 60.2715C1.30526 60.2715 0.958008 59.8857 0.958008 59.114L1.53676 39.8996C1.53676 39.2051 1.884 38.8579 2.5785 38.8579L11.3755 39.0894C12.1471 39.0894 12.4944 39.4752 12.4172 40.2469V42.0989C16.8157 39.7839 21.2528 39.7839 25.7284 42.0989L26.5387 42.4461C27.6961 43.0634 28.8922 43.3721 30.1269 43.3721L38.1136 43.6036C40.8144 43.6808 42.8208 44.9154 44.1326 47.3076L52.8138 43.2564C54.1256 42.5619 55.4953 42.4268 56.9229 42.8512C58.3505 43.2757 59.4501 44.1438 60.2218 45.4556ZM3.15725 58.0723L9.75497 58.3038L10.218 41.2886L3.62025 41.0571L3.15725 58.0723ZM38.9239 57.8408L57.5595 45.8028C56.402 44.7225 55.1288 44.5296 53.7398 45.2241L44.8271 49.3911C44.9814 49.9312 45.02 50.4328 44.9428 50.8958C44.9428 51.5903 44.5956 51.9376 43.9011 51.9376L30.7056 51.5903C30.0111 51.5903 29.6639 51.2238 29.6639 50.4907C29.6639 49.7576 30.0497 49.3911 30.8214 49.3911L42.6278 49.7383C42.3963 48.5808 41.8562 47.6548 41.0073 46.9603C40.1585 46.2658 39.1939 45.88 38.1136 45.8028L30.1269 45.5714C28.5064 45.5714 26.9631 45.1855 25.4969 44.4139L24.6867 44.0666C22.6803 42.9863 20.5776 42.504 18.3783 42.6197C16.1791 42.7355 14.1535 43.4107 12.3015 44.6454L12.07 55.9888L13.2275 55.4101C14.6165 54.5612 16.1212 54.3683 17.7417 54.8313L31.2844 58.651C33.908 59.1912 36.4545 58.9211 38.9239 57.8408Z" fill="#00BCD4"/>
</svg>
