<svg width="61" height="62" viewBox="0 0 61 62" fill="none" xmlns="http://www.w3.org/2000/svg">
<path d="M43.5538 13.0872C42.9365 13.0872 42.6278 12.7978 42.6278 12.2191C42.6278 11.6403 42.9365 11.351 43.5538 11.351H47.9523C48.4925 11.351 48.7626 11.6403 48.7626 12.2191C48.7626 12.7978 48.4925 13.0872 47.9523 13.0872H43.5538ZM55.939 11.351C56.7107 11.351 57.4245 11.5439 58.0804 11.9297C58.7363 12.3155 59.2572 12.8364 59.643 13.4923C60.0288 14.1483 60.2218 14.862 60.2218 15.6337V48.9696C60.2218 50.1271 59.7973 51.1109 58.9485 51.9212C58.0997 52.7314 57.0965 53.1365 55.939 53.1365H41.7018V56.609L43.9011 59.5028H45.0586C45.6759 59.5028 45.9846 59.7921 45.9846 60.3709C45.9846 60.9496 45.6759 61.239 45.0586 61.239H16.3527C15.7354 61.239 15.4267 60.9496 15.4267 60.3709C15.4267 59.7921 15.7354 59.5028 16.3527 59.5028H17.3944L19.5937 56.609V53.1365H5.24074C4.08325 53.1365 3.08008 52.7314 2.23125 51.9212C1.38242 51.1109 0.958008 50.1271 0.958008 48.9696V15.6337C0.958008 14.4762 1.38242 13.473 2.23125 12.6242C3.08008 11.7754 4.08325 11.351 5.24074 11.351H17.6259C18.2433 11.351 18.5519 11.6403 18.5519 12.2191C18.5519 12.7978 18.2433 13.0872 17.6259 13.0872H5.24074C4.54624 13.0872 3.9482 13.338 3.44662 13.8396C2.94504 14.3412 2.69425 14.9392 2.69425 15.6337V46.3073H8.01873C8.55889 46.3073 8.82898 46.5967 8.82898 47.1754C8.82898 47.7542 8.55889 48.0436 8.01873 48.0436H2.69425V48.9696C2.69425 49.6641 2.94504 50.2428 3.44662 50.7058C3.9482 51.1688 4.54624 51.4003 5.24074 51.4003H55.939C56.6335 51.4003 57.2316 51.1688 57.7332 50.7058C58.2347 50.2428 58.4855 49.6641 58.4855 48.9696V48.0436H11.7227C11.1054 48.0436 10.7967 47.7542 10.7967 47.1754C10.7967 46.5967 11.1054 46.3073 11.7227 46.3073H58.4855V15.6337C58.4855 14.9392 58.2347 14.3412 57.7332 13.8396C57.2316 13.338 56.6335 13.0872 55.939 13.0872H51.6563C51.039 13.0872 50.7303 12.7978 50.7303 12.2191C50.7303 11.6403 51.039 11.351 51.6563 11.351H55.939ZM40.1971 57.4193C40.0428 57.2649 39.9656 57.072 39.9656 56.8405V53.1365H21.3299V56.8405C21.3299 57.072 21.2528 57.2649 21.0984 57.4193L19.5937 59.5028H41.7018L40.1971 57.4193ZM37.8821 19.5692C37.8821 19.5692 37.3805 20.0708 36.3774 21.0739C35.3742 22.0771 33.445 22.5787 30.5899 22.5787C27.7347 22.5787 25.304 21.5755 23.2977 19.5692C21.2913 17.5629 20.2882 15.1321 20.2882 12.277C20.2882 9.42181 21.2913 6.99107 23.2977 4.98475C25.304 2.97842 27.7347 1.97526 30.5899 1.97526C32.4419 1.97526 34.1588 2.43826 35.7407 3.36425C37.3227 4.29025 38.5766 5.5442 39.5026 7.12611C40.4286 8.70802 40.8916 10.425 40.8916 12.277C40.8916 15.1321 39.8884 17.5629 37.8821 19.5692ZM36.6667 6.20012C36.6667 6.20012 36.252 5.78535 35.4224 4.95581C34.5929 4.12627 32.982 3.7115 30.5899 3.7115C28.1977 3.7115 26.1721 4.54104 24.513 6.20012C22.854 7.85919 22.0244 9.88481 22.0244 12.277C22.0244 14.6691 22.854 16.6947 24.513 18.3538C26.1721 20.0129 28.1977 20.8424 30.5899 20.8424C32.982 20.8424 35.0077 20.0129 36.6667 18.3538C38.3258 16.6947 39.1553 14.6691 39.1553 12.277C39.1553 9.88481 38.3258 7.85919 36.6667 6.20012ZM28.8536 16.5597L26.5387 14.4762C26.0757 14.0904 26.0371 13.6853 26.4229 13.2608C26.8087 12.8364 27.2332 12.8171 27.6961 13.203L29.4324 14.7077L34.9884 9.38323C35.4514 8.92023 35.8758 8.90094 36.2616 9.32535C36.6474 9.74977 36.6474 10.1935 36.2616 10.6565L30.0111 16.5597C29.8568 16.714 29.6639 16.7912 29.4324 16.7912C29.2009 16.7912 29.008 16.714 28.8536 16.5597ZM14.5007 27.9032C14.192 27.9032 14.0377 28.0961 14.0377 28.4819V33.5749C14.0377 33.9607 14.192 34.1536 14.5007 34.1536H28.8536C29.3938 34.1536 29.6639 34.443 29.6639 35.0217C29.6639 35.6005 29.3938 35.8899 28.8536 35.8899H14.5007C13.8834 35.8899 13.3625 35.6584 12.9381 35.1954C12.5137 34.7324 12.3015 34.1922 12.3015 33.5749V28.4819C12.3015 27.8646 12.5137 27.3244 12.9381 26.8614C13.3625 26.3984 13.8834 26.1669 14.5007 26.1669H39.0396C39.5798 26.1669 39.8498 26.4563 39.8498 27.035C39.8498 27.6138 39.5798 27.9032 39.0396 27.9032H14.5007ZM42.7436 27.9032C42.1263 27.9032 41.8176 27.6138 41.8176 27.035C41.8176 26.4563 42.1263 26.1669 42.7436 26.1669H46.6791C47.2964 26.1669 47.8173 26.3984 48.2417 26.8614C48.6661 27.3244 48.8783 27.8646 48.8783 28.4819V33.5749C48.8783 34.0379 48.7819 34.443 48.5889 34.7902C48.396 35.1375 48.1259 35.4076 47.7787 35.6005C47.4314 35.7934 47.0649 35.8899 46.6791 35.8899H43.3223C42.705 35.8899 42.3963 35.6005 42.3963 35.0217C42.3963 34.443 42.705 34.1536 43.3223 34.1536H46.6791C46.9877 34.1536 47.1421 33.9607 47.1421 33.5749V28.4819C47.1421 28.0961 46.9877 27.9032 46.6791 27.9032H42.7436ZM39.8498 34.7324C40.39 34.8867 40.718 35.2532 40.8337 35.832C40.9495 36.4107 40.7373 36.893 40.1971 37.2789L38.9239 38.0891L40.5443 40.4041C41.0845 41.1758 40.9688 41.8317 40.1971 42.3718L38.1136 43.7608C37.8821 43.9152 37.612 43.9923 37.3034 43.9923C37.2262 43.9923 37.149 43.9923 37.0719 43.9923C36.686 43.9152 36.3774 43.7223 36.1459 43.4136L34.6411 41.0986L33.2521 42.0246C32.7891 42.3333 32.3068 42.3526 31.8053 42.0825C31.3037 41.8124 31.0529 41.3687 31.0529 40.7513L31.5159 33.9221C31.5159 33.4591 31.7088 33.0926 32.0946 32.8225C32.4805 32.5524 32.9049 32.4945 33.3679 32.6489L39.8498 34.7324ZM37.4191 42.1403L38.9239 41.0986L37.0719 38.4364C36.9175 38.2049 36.8596 37.9734 36.8982 37.7419C36.9368 37.5104 37.0719 37.3174 37.3034 37.1631L38.6924 36.2371L33.2521 34.5009L32.9049 40.1726L34.2939 39.2466C34.4482 39.0923 34.6411 39.0151 34.8726 39.0151C34.8726 39.0151 34.9112 39.0151 34.9884 39.0151C35.2199 39.0923 35.4128 39.2466 35.5671 39.4781L37.4191 42.1403Z" fill="#00BCD4"/>
</svg>
